<mxfile host="app.diagrams.net" modified="2022-08-04T12:51:19.198Z" agent="5.0 (Windows NT 10.0; Win64; x64) AppleWebKit/537.36 (KHTML, like Gecko) Chrome/104.0.0.0 Safari/537.36" etag="MDiRst6Pnq5ziI5rzP7b" version="20.2.3" type="github">
  <diagram id="pN3tOv0Hnyo84Ak2nDvD" name="Page-1">
    <mxGraphModel dx="6375" dy="2057" grid="1" gridSize="10" guides="1" tooltips="1" connect="1" arrows="1" fold="1" page="1" pageScale="1" pageWidth="583" pageHeight="827" math="0" shadow="0">
      <root>
        <mxCell id="0" />
        <mxCell id="1" parent="0" />
        <mxCell id="XFGnVmIvgDXaTXO8uA-s-1" value="Penggugat / &lt;br&gt;Jaksa" style="shape=umlActor;verticalLabelPosition=bottom;verticalAlign=top;html=1;outlineConnect=0;" parent="1" vertex="1">
          <mxGeometry x="35" y="148" width="30" height="60" as="geometry" />
        </mxCell>
        <mxCell id="XFGnVmIvgDXaTXO8uA-s-5" value="" style="ellipse;whiteSpace=wrap;html=1;labelBackgroundColor=default;fillColor=#99FFFF;" parent="1" vertex="1">
          <mxGeometry x="142" y="148" width="60" height="60" as="geometry" />
        </mxCell>
        <mxCell id="XFGnVmIvgDXaTXO8uA-s-7" value="" style="endArrow=none;html=1;rounded=0;entryX=0;entryY=0.5;entryDx=0;entryDy=0;" parent="1" target="XFGnVmIvgDXaTXO8uA-s-5" edge="1">
          <mxGeometry width="50" height="50" relative="1" as="geometry">
            <mxPoint x="132" y="178" as="sourcePoint" />
            <mxPoint x="452" y="298" as="targetPoint" />
          </mxGeometry>
        </mxCell>
        <mxCell id="XFGnVmIvgDXaTXO8uA-s-8" value="" style="endArrow=none;html=1;rounded=0;" parent="1" edge="1">
          <mxGeometry width="50" height="50" relative="1" as="geometry">
            <mxPoint x="132" y="208" as="sourcePoint" />
            <mxPoint x="132" y="148" as="targetPoint" />
          </mxGeometry>
        </mxCell>
        <mxCell id="XFGnVmIvgDXaTXO8uA-s-9" value="" style="ellipse;whiteSpace=wrap;html=1;labelBackgroundColor=#08FFFF;fillColor=#99FFFF;" parent="1" vertex="1">
          <mxGeometry x="260" y="148" width="60" height="60" as="geometry" />
        </mxCell>
        <mxCell id="XFGnVmIvgDXaTXO8uA-s-10" value="" style="endArrow=none;html=1;rounded=0;entryX=0;entryY=0.5;entryDx=0;entryDy=0;" parent="1" target="XFGnVmIvgDXaTXO8uA-s-9" edge="1">
          <mxGeometry width="50" height="50" relative="1" as="geometry">
            <mxPoint x="250" y="178" as="sourcePoint" />
            <mxPoint x="570" y="298" as="targetPoint" />
          </mxGeometry>
        </mxCell>
        <mxCell id="XFGnVmIvgDXaTXO8uA-s-11" value="" style="endArrow=none;html=1;rounded=0;" parent="1" edge="1">
          <mxGeometry width="50" height="50" relative="1" as="geometry">
            <mxPoint x="250" y="208" as="sourcePoint" />
            <mxPoint x="250" y="148" as="targetPoint" />
          </mxGeometry>
        </mxCell>
        <mxCell id="XFGnVmIvgDXaTXO8uA-s-12" value="" style="shape=link;html=1;rounded=0;" parent="1" edge="1">
          <mxGeometry width="100" relative="1" as="geometry">
            <mxPoint x="49.47" y="318" as="sourcePoint" />
            <mxPoint x="50" y="678" as="targetPoint" />
          </mxGeometry>
        </mxCell>
        <mxCell id="XFGnVmIvgDXaTXO8uA-s-13" value="" style="endArrow=classic;html=1;rounded=0;" parent="1" edge="1">
          <mxGeometry width="50" height="50" relative="1" as="geometry">
            <mxPoint x="49.47" y="318" as="sourcePoint" />
            <mxPoint x="169.47" y="318" as="targetPoint" />
          </mxGeometry>
        </mxCell>
        <mxCell id="XFGnVmIvgDXaTXO8uA-s-14" value="" style="shape=link;html=1;rounded=0;" parent="1" edge="1">
          <mxGeometry width="100" relative="1" as="geometry">
            <mxPoint x="170.94" y="318" as="sourcePoint" />
            <mxPoint x="171" y="678" as="targetPoint" />
          </mxGeometry>
        </mxCell>
        <mxCell id="XFGnVmIvgDXaTXO8uA-s-15" value="" style="shape=link;html=1;rounded=0;" parent="1" edge="1">
          <mxGeometry width="100" relative="1" as="geometry">
            <mxPoint x="289.47" y="358" as="sourcePoint" />
            <mxPoint x="289" y="678" as="targetPoint" />
          </mxGeometry>
        </mxCell>
        <mxCell id="XFGnVmIvgDXaTXO8uA-s-16" value="" style="endArrow=classic;html=1;rounded=0;" parent="1" edge="1">
          <mxGeometry width="50" height="50" relative="1" as="geometry">
            <mxPoint x="169.47" y="358" as="sourcePoint" />
            <mxPoint x="289.47" y="358" as="targetPoint" />
          </mxGeometry>
        </mxCell>
        <mxCell id="XFGnVmIvgDXaTXO8uA-s-17" value="" style="shape=link;html=1;rounded=0;" parent="1" edge="1">
          <mxGeometry width="100" relative="1" as="geometry">
            <mxPoint x="409.47" y="398" as="sourcePoint" />
            <mxPoint x="410" y="528" as="targetPoint" />
          </mxGeometry>
        </mxCell>
        <mxCell id="XFGnVmIvgDXaTXO8uA-s-18" value="" style="endArrow=classic;html=1;rounded=0;" parent="1" edge="1">
          <mxGeometry width="50" height="50" relative="1" as="geometry">
            <mxPoint x="289.47" y="398" as="sourcePoint" />
            <mxPoint x="409.47" y="398" as="targetPoint" />
          </mxGeometry>
        </mxCell>
        <mxCell id="XFGnVmIvgDXaTXO8uA-s-20" value="" style="endArrow=classic;html=1;rounded=0;" parent="1" edge="1">
          <mxGeometry width="50" height="50" relative="1" as="geometry">
            <mxPoint x="409.47" y="438" as="sourcePoint" />
            <mxPoint x="650" y="438" as="targetPoint" />
          </mxGeometry>
        </mxCell>
        <mxCell id="XFGnVmIvgDXaTXO8uA-s-21" value="" style="ellipse;whiteSpace=wrap;html=1;labelBackgroundColor=#08FFFF;fillColor=#99FFFF;" parent="1" vertex="1">
          <mxGeometry x="380" y="148" width="60" height="60" as="geometry" />
        </mxCell>
        <mxCell id="XFGnVmIvgDXaTXO8uA-s-22" value="" style="endArrow=none;html=1;rounded=0;entryX=0;entryY=0.5;entryDx=0;entryDy=0;" parent="1" target="XFGnVmIvgDXaTXO8uA-s-21" edge="1">
          <mxGeometry width="50" height="50" relative="1" as="geometry">
            <mxPoint x="370" y="178" as="sourcePoint" />
            <mxPoint x="690" y="298" as="targetPoint" />
          </mxGeometry>
        </mxCell>
        <mxCell id="XFGnVmIvgDXaTXO8uA-s-23" value="" style="endArrow=none;html=1;rounded=0;" parent="1" edge="1">
          <mxGeometry width="50" height="50" relative="1" as="geometry">
            <mxPoint x="370" y="208" as="sourcePoint" />
            <mxPoint x="370" y="148" as="targetPoint" />
          </mxGeometry>
        </mxCell>
        <mxCell id="XFGnVmIvgDXaTXO8uA-s-24" value="" style="ellipse;whiteSpace=wrap;html=1;labelBackgroundColor=#08FFFF;fillColor=#99FFFF;" parent="1" vertex="1">
          <mxGeometry x="500" y="148" width="60" height="60" as="geometry" />
        </mxCell>
        <mxCell id="XFGnVmIvgDXaTXO8uA-s-25" value="" style="endArrow=none;html=1;rounded=0;entryX=0;entryY=0.5;entryDx=0;entryDy=0;" parent="1" target="XFGnVmIvgDXaTXO8uA-s-24" edge="1">
          <mxGeometry width="50" height="50" relative="1" as="geometry">
            <mxPoint x="490" y="178" as="sourcePoint" />
            <mxPoint x="810" y="298" as="targetPoint" />
          </mxGeometry>
        </mxCell>
        <mxCell id="XFGnVmIvgDXaTXO8uA-s-26" value="" style="endArrow=none;html=1;rounded=0;" parent="1" edge="1">
          <mxGeometry width="50" height="50" relative="1" as="geometry">
            <mxPoint x="490" y="208" as="sourcePoint" />
            <mxPoint x="490" y="148" as="targetPoint" />
          </mxGeometry>
        </mxCell>
        <mxCell id="XFGnVmIvgDXaTXO8uA-s-27" value="" style="ellipse;whiteSpace=wrap;html=1;labelBackgroundColor=#08FFFF;fillColor=#99FFFF;" parent="1" vertex="1">
          <mxGeometry x="620" y="148" width="60" height="60" as="geometry" />
        </mxCell>
        <mxCell id="XFGnVmIvgDXaTXO8uA-s-30" value="" style="ellipse;whiteSpace=wrap;html=1;labelBackgroundColor=#08FFFF;fillColor=#99FFFF;" parent="1" vertex="1">
          <mxGeometry x="740" y="148" width="60" height="60" as="geometry" />
        </mxCell>
        <mxCell id="XFGnVmIvgDXaTXO8uA-s-34" value="" style="endArrow=classic;html=1;rounded=0;" parent="1" edge="1">
          <mxGeometry width="50" height="50" relative="1" as="geometry">
            <mxPoint x="653" y="148" as="sourcePoint" />
            <mxPoint x="643" y="148" as="targetPoint" />
          </mxGeometry>
        </mxCell>
        <mxCell id="XFGnVmIvgDXaTXO8uA-s-35" value="" style="shape=link;html=1;rounded=0;" parent="1" edge="1">
          <mxGeometry width="100" relative="1" as="geometry">
            <mxPoint x="649" y="438" as="sourcePoint" />
            <mxPoint x="650" y="518" as="targetPoint" />
          </mxGeometry>
        </mxCell>
        <mxCell id="XFGnVmIvgDXaTXO8uA-s-37" value="" style="shape=link;html=1;rounded=0;" parent="1" edge="1">
          <mxGeometry width="100" relative="1" as="geometry">
            <mxPoint x="769.47" y="467" as="sourcePoint" />
            <mxPoint x="770" y="518" as="targetPoint" />
          </mxGeometry>
        </mxCell>
        <mxCell id="XFGnVmIvgDXaTXO8uA-s-38" value="" style="endArrow=classic;html=1;rounded=0;" parent="1" edge="1">
          <mxGeometry width="50" height="50" relative="1" as="geometry">
            <mxPoint x="649.47" y="468" as="sourcePoint" />
            <mxPoint x="769.47" y="468" as="targetPoint" />
          </mxGeometry>
        </mxCell>
        <mxCell id="XFGnVmIvgDXaTXO8uA-s-40" value="&lt;font style=&quot;font-size: 12px;&quot;&gt;Masuk ke halaman&lt;/font&gt;" style="text;strokeColor=none;fillColor=none;html=1;fontSize=24;fontStyle=1;verticalAlign=middle;align=center;" parent="1" vertex="1">
          <mxGeometry x="60" y="288" width="100" height="30" as="geometry" />
        </mxCell>
        <mxCell id="XFGnVmIvgDXaTXO8uA-s-41" value="&lt;font style=&quot;font-size: 12px;&quot;&gt;Masuk ke halaman&lt;/font&gt;" style="text;strokeColor=none;fillColor=none;html=1;fontSize=24;fontStyle=1;verticalAlign=middle;align=center;" parent="1" vertex="1">
          <mxGeometry x="179.47" y="328" width="100" height="30" as="geometry" />
        </mxCell>
        <mxCell id="XFGnVmIvgDXaTXO8uA-s-42" value="&lt;span style=&quot;font-size: 12px;&quot;&gt;Masuk ke halaman&lt;/span&gt;" style="text;strokeColor=none;fillColor=none;html=1;fontSize=24;fontStyle=1;verticalAlign=middle;align=center;" parent="1" vertex="1">
          <mxGeometry x="299.47" y="368" width="100" height="30" as="geometry" />
        </mxCell>
        <mxCell id="XFGnVmIvgDXaTXO8uA-s-43" value="&lt;font style=&quot;font-size: 12px;&quot;&gt;Mengisi data&lt;/font&gt;" style="text;strokeColor=none;fillColor=none;html=1;fontSize=24;fontStyle=1;verticalAlign=middle;align=center;" parent="1" vertex="1">
          <mxGeometry x="480" y="408" width="100" height="30" as="geometry" />
        </mxCell>
        <mxCell id="XFGnVmIvgDXaTXO8uA-s-46" value="Halaman menu utama" style="text;strokeColor=none;fillColor=none;fontSize=12;fontStyle=1;verticalAlign=middle;align=center;whiteSpace=wrap;" parent="1" vertex="1">
          <mxGeometry x="122" y="218" width="100" height="30" as="geometry" />
        </mxCell>
        <mxCell id="XFGnVmIvgDXaTXO8uA-s-47" value="Halaman info gugatan" style="text;strokeColor=none;fillColor=none;fontSize=12;fontStyle=1;verticalAlign=middle;align=center;whiteSpace=wrap;" parent="1" vertex="1">
          <mxGeometry x="240" y="218" width="100" height="30" as="geometry" />
        </mxCell>
        <mxCell id="XFGnVmIvgDXaTXO8uA-s-48" value="Halaman tambah gugatan" style="text;strokeColor=none;fillColor=none;fontSize=12;fontStyle=1;verticalAlign=middle;align=center;whiteSpace=wrap;" parent="1" vertex="1">
          <mxGeometry x="360" y="218" width="100" height="30" as="geometry" />
        </mxCell>
        <mxCell id="XFGnVmIvgDXaTXO8uA-s-49" value="Halaman ubah gugatan" style="text;strokeColor=none;fillColor=none;fontSize=12;fontStyle=1;verticalAlign=middle;align=center;whiteSpace=wrap;" parent="1" vertex="1">
          <mxGeometry x="480" y="218" width="100" height="30" as="geometry" />
        </mxCell>
        <mxCell id="XFGnVmIvgDXaTXO8uA-s-50" value="Validasi" style="text;strokeColor=none;fillColor=none;fontSize=12;fontStyle=1;verticalAlign=middle;align=center;whiteSpace=wrap;" parent="1" vertex="1">
          <mxGeometry x="600" y="218" width="100" height="30" as="geometry" />
        </mxCell>
        <mxCell id="XFGnVmIvgDXaTXO8uA-s-51" value="Database" style="text;strokeColor=none;fillColor=none;fontSize=12;fontStyle=1;verticalAlign=middle;align=center;whiteSpace=wrap;" parent="1" vertex="1">
          <mxGeometry x="720" y="218" width="100" height="30" as="geometry" />
        </mxCell>
        <mxCell id="XFGnVmIvgDXaTXO8uA-s-52" value="" style="endArrow=none;html=1;rounded=0;" parent="1" edge="1">
          <mxGeometry width="50" height="50" relative="1" as="geometry">
            <mxPoint x="739.47" y="207.95" as="sourcePoint" />
            <mxPoint x="800" y="207.95" as="targetPoint" />
          </mxGeometry>
        </mxCell>
        <mxCell id="XFGnVmIvgDXaTXO8uA-s-53" value="&lt;font style=&quot;font-size: 12px;&quot;&gt;Benar&lt;/font&gt;" style="text;strokeColor=none;fillColor=none;html=1;fontSize=24;fontStyle=1;verticalAlign=middle;align=center;" parent="1" vertex="1">
          <mxGeometry x="660" y="438" width="100" height="30" as="geometry" />
        </mxCell>
        <mxCell id="XFGnVmIvgDXaTXO8uA-s-54" value="" style="endArrow=classic;html=1;rounded=0;" parent="1" edge="1">
          <mxGeometry width="50" height="50" relative="1" as="geometry">
            <mxPoint x="650" y="518" as="sourcePoint" />
            <mxPoint x="410" y="518" as="targetPoint" />
          </mxGeometry>
        </mxCell>
        <mxCell id="XFGnVmIvgDXaTXO8uA-s-55" value="&lt;font style=&quot;font-size: 12px;&quot;&gt;Salah&lt;/font&gt;" style="text;strokeColor=none;fillColor=none;html=1;fontSize=24;fontStyle=1;verticalAlign=middle;align=center;" parent="1" vertex="1">
          <mxGeometry x="480" y="488" width="100" height="30" as="geometry" />
        </mxCell>
        <mxCell id="XFGnVmIvgDXaTXO8uA-s-56" value="" style="shape=link;html=1;rounded=0;" parent="1" edge="1">
          <mxGeometry width="100" relative="1" as="geometry">
            <mxPoint x="529.47" y="548" as="sourcePoint" />
            <mxPoint x="530" y="678" as="targetPoint" />
          </mxGeometry>
        </mxCell>
        <mxCell id="XFGnVmIvgDXaTXO8uA-s-57" value="" style="endArrow=classic;html=1;rounded=0;" parent="1" edge="1">
          <mxGeometry width="50" height="50" relative="1" as="geometry">
            <mxPoint x="289.47" y="548" as="sourcePoint" />
            <mxPoint x="530" y="548" as="targetPoint" />
          </mxGeometry>
        </mxCell>
        <mxCell id="XFGnVmIvgDXaTXO8uA-s-58" value="" style="endArrow=classic;html=1;rounded=0;" parent="1" edge="1">
          <mxGeometry width="50" height="50" relative="1" as="geometry">
            <mxPoint x="530" y="588" as="sourcePoint" />
            <mxPoint x="650" y="588" as="targetPoint" />
          </mxGeometry>
        </mxCell>
        <mxCell id="XFGnVmIvgDXaTXO8uA-s-59" value="" style="shape=link;html=1;rounded=0;" parent="1" edge="1">
          <mxGeometry width="100" relative="1" as="geometry">
            <mxPoint x="649" y="588" as="sourcePoint" />
            <mxPoint x="650" y="668" as="targetPoint" />
          </mxGeometry>
        </mxCell>
        <mxCell id="XFGnVmIvgDXaTXO8uA-s-60" value="" style="shape=link;html=1;rounded=0;" parent="1" edge="1">
          <mxGeometry width="100" relative="1" as="geometry">
            <mxPoint x="769.47" y="617" as="sourcePoint" />
            <mxPoint x="770" y="668" as="targetPoint" />
          </mxGeometry>
        </mxCell>
        <mxCell id="XFGnVmIvgDXaTXO8uA-s-61" value="" style="endArrow=classic;html=1;rounded=0;" parent="1" edge="1">
          <mxGeometry width="50" height="50" relative="1" as="geometry">
            <mxPoint x="649.47" y="618" as="sourcePoint" />
            <mxPoint x="769.47" y="618" as="targetPoint" />
          </mxGeometry>
        </mxCell>
        <mxCell id="XFGnVmIvgDXaTXO8uA-s-62" value="&lt;font style=&quot;font-size: 12px;&quot;&gt;Mengubah data&lt;/font&gt;" style="text;strokeColor=none;fillColor=none;html=1;fontSize=24;fontStyle=1;verticalAlign=middle;align=center;" parent="1" vertex="1">
          <mxGeometry x="540" y="558" width="100" height="30" as="geometry" />
        </mxCell>
        <mxCell id="XFGnVmIvgDXaTXO8uA-s-63" value="&lt;font style=&quot;font-size: 12px;&quot;&gt;Benar&lt;/font&gt;" style="text;strokeColor=none;fillColor=none;html=1;fontSize=24;fontStyle=1;verticalAlign=middle;align=center;" parent="1" vertex="1">
          <mxGeometry x="660" y="588" width="100" height="30" as="geometry" />
        </mxCell>
        <mxCell id="XFGnVmIvgDXaTXO8uA-s-64" value="" style="endArrow=classic;html=1;rounded=0;" parent="1" edge="1">
          <mxGeometry width="50" height="50" relative="1" as="geometry">
            <mxPoint x="650" y="668" as="sourcePoint" />
            <mxPoint x="410" y="668" as="targetPoint" />
          </mxGeometry>
        </mxCell>
        <mxCell id="XFGnVmIvgDXaTXO8uA-s-65" value="&lt;font style=&quot;font-size: 12px;&quot;&gt;Salah&lt;/font&gt;" style="text;strokeColor=none;fillColor=none;html=1;fontSize=24;fontStyle=1;verticalAlign=middle;align=center;" parent="1" vertex="1">
          <mxGeometry x="530" y="638" width="100" height="30" as="geometry" />
        </mxCell>
        <mxCell id="XFGnVmIvgDXaTXO8uA-s-66" value="&lt;span style=&quot;font-size: 12px;&quot;&gt;Masuk ke halaman&lt;/span&gt;" style="text;strokeColor=none;fillColor=none;html=1;fontSize=24;fontStyle=1;verticalAlign=middle;align=center;" parent="1" vertex="1">
          <mxGeometry x="370" y="522" width="100" height="30" as="geometry" />
        </mxCell>
        <mxCell id="XFGnVmIvgDXaTXO8uA-s-67" value="" style="shape=link;html=1;rounded=0;" parent="1" edge="1">
          <mxGeometry width="100" relative="1" as="geometry">
            <mxPoint x="410" y="658" as="sourcePoint" />
            <mxPoint x="410" y="678.5" as="targetPoint" />
          </mxGeometry>
        </mxCell>
        <mxCell id="XFGnVmIvgDXaTXO8uA-s-68" value="" style="endArrow=none;dashed=1;html=1;dashPattern=1 3;strokeWidth=2;rounded=0;fontSize=12;fontColor=none;" parent="1" edge="1">
          <mxGeometry width="50" height="50" relative="1" as="geometry">
            <mxPoint x="50" y="318" as="sourcePoint" />
            <mxPoint x="50" y="238" as="targetPoint" />
          </mxGeometry>
        </mxCell>
        <mxCell id="XFGnVmIvgDXaTXO8uA-s-69" value="" style="endArrow=none;dashed=1;html=1;dashPattern=1 3;strokeWidth=2;rounded=0;fontSize=12;fontColor=none;" parent="1" edge="1">
          <mxGeometry width="50" height="50" relative="1" as="geometry">
            <mxPoint x="170" y="318" as="sourcePoint" />
            <mxPoint x="170" y="248" as="targetPoint" />
          </mxGeometry>
        </mxCell>
        <mxCell id="XFGnVmIvgDXaTXO8uA-s-70" value="" style="endArrow=none;dashed=1;html=1;dashPattern=1 3;strokeWidth=2;rounded=0;fontSize=12;fontColor=none;entryX=0.5;entryY=1;entryDx=0;entryDy=0;" parent="1" target="XFGnVmIvgDXaTXO8uA-s-47" edge="1">
          <mxGeometry width="50" height="50" relative="1" as="geometry">
            <mxPoint x="289.47" y="358" as="sourcePoint" />
            <mxPoint x="289.47" y="288" as="targetPoint" />
          </mxGeometry>
        </mxCell>
        <mxCell id="XFGnVmIvgDXaTXO8uA-s-71" value="" style="endArrow=none;dashed=1;html=1;dashPattern=1 3;strokeWidth=2;rounded=0;fontSize=12;fontColor=none;entryX=0.5;entryY=1;entryDx=0;entryDy=0;" parent="1" edge="1">
          <mxGeometry width="50" height="50" relative="1" as="geometry">
            <mxPoint x="410" y="398" as="sourcePoint" />
            <mxPoint x="410" y="248" as="targetPoint" />
          </mxGeometry>
        </mxCell>
        <mxCell id="XFGnVmIvgDXaTXO8uA-s-72" value="" style="endArrow=none;dashed=1;html=1;dashPattern=1 3;strokeWidth=2;rounded=0;fontSize=12;fontColor=none;entryX=0.5;entryY=1;entryDx=0;entryDy=0;" parent="1" edge="1">
          <mxGeometry width="50" height="50" relative="1" as="geometry">
            <mxPoint x="530" y="538" as="sourcePoint" />
            <mxPoint x="530" y="248" as="targetPoint" />
          </mxGeometry>
        </mxCell>
        <mxCell id="XFGnVmIvgDXaTXO8uA-s-73" value="" style="endArrow=none;dashed=1;html=1;dashPattern=1 3;strokeWidth=2;rounded=0;fontSize=12;fontColor=none;" parent="1" edge="1">
          <mxGeometry width="50" height="50" relative="1" as="geometry">
            <mxPoint x="649" y="438" as="sourcePoint" />
            <mxPoint x="649" y="238" as="targetPoint" />
          </mxGeometry>
        </mxCell>
        <mxCell id="XFGnVmIvgDXaTXO8uA-s-74" value="" style="endArrow=none;dashed=1;html=1;dashPattern=1 3;strokeWidth=2;rounded=0;fontSize=12;fontColor=none;entryX=0.5;entryY=1;entryDx=0;entryDy=0;" parent="1" edge="1">
          <mxGeometry width="50" height="50" relative="1" as="geometry">
            <mxPoint x="770" y="458" as="sourcePoint" />
            <mxPoint x="769.7500000000001" y="248" as="targetPoint" />
          </mxGeometry>
        </mxCell>
        <mxCell id="XFGnVmIvgDXaTXO8uA-s-75" value="" style="endArrow=none;dashed=1;html=1;dashPattern=1 3;strokeWidth=2;rounded=0;fontSize=12;fontColor=none;entryX=0.5;entryY=1;entryDx=0;entryDy=0;" parent="1" edge="1">
          <mxGeometry width="50" height="50" relative="1" as="geometry">
            <mxPoint x="769" y="618" as="sourcePoint" />
            <mxPoint x="769.38" y="522" as="targetPoint" />
          </mxGeometry>
        </mxCell>
        <mxCell id="XFGnVmIvgDXaTXO8uA-s-76" value="" style="endArrow=none;dashed=1;html=1;dashPattern=1 3;strokeWidth=2;rounded=0;fontSize=12;fontColor=none;entryX=0.5;entryY=1;entryDx=0;entryDy=0;" parent="1" edge="1">
          <mxGeometry width="50" height="50" relative="1" as="geometry">
            <mxPoint x="410" y="658" as="sourcePoint" />
            <mxPoint x="409.7500000000001" y="525" as="targetPoint" />
          </mxGeometry>
        </mxCell>
        <mxCell id="XFGnVmIvgDXaTXO8uA-s-80" value="Ketua pengadilan" style="shape=umlActor;verticalLabelPosition=bottom;verticalAlign=top;html=1;outlineConnect=0;" parent="1" vertex="1">
          <mxGeometry x="-880" y="148" width="30" height="60" as="geometry" />
        </mxCell>
        <mxCell id="XFGnVmIvgDXaTXO8uA-s-81" value="" style="ellipse;whiteSpace=wrap;html=1;labelBackgroundColor=default;fillColor=#99FFFF;" parent="1" vertex="1">
          <mxGeometry x="-773" y="148" width="60" height="60" as="geometry" />
        </mxCell>
        <mxCell id="XFGnVmIvgDXaTXO8uA-s-82" value="" style="endArrow=none;html=1;rounded=0;entryX=0;entryY=0.5;entryDx=0;entryDy=0;" parent="1" target="XFGnVmIvgDXaTXO8uA-s-81" edge="1">
          <mxGeometry width="50" height="50" relative="1" as="geometry">
            <mxPoint x="-782.9999999999998" y="178" as="sourcePoint" />
            <mxPoint x="-463" y="298" as="targetPoint" />
          </mxGeometry>
        </mxCell>
        <mxCell id="XFGnVmIvgDXaTXO8uA-s-83" value="" style="endArrow=none;html=1;rounded=0;" parent="1" edge="1">
          <mxGeometry width="50" height="50" relative="1" as="geometry">
            <mxPoint x="-782.9999999999998" y="208" as="sourcePoint" />
            <mxPoint x="-782.9999999999998" y="148" as="targetPoint" />
          </mxGeometry>
        </mxCell>
        <mxCell id="XFGnVmIvgDXaTXO8uA-s-84" value="" style="ellipse;whiteSpace=wrap;html=1;labelBackgroundColor=#08FFFF;fillColor=#99FFFF;" parent="1" vertex="1">
          <mxGeometry x="-655" y="148" width="60" height="60" as="geometry" />
        </mxCell>
        <mxCell id="XFGnVmIvgDXaTXO8uA-s-85" value="" style="endArrow=none;html=1;rounded=0;entryX=0;entryY=0.5;entryDx=0;entryDy=0;" parent="1" target="XFGnVmIvgDXaTXO8uA-s-84" edge="1">
          <mxGeometry width="50" height="50" relative="1" as="geometry">
            <mxPoint x="-665" y="178" as="sourcePoint" />
            <mxPoint x="-345" y="298" as="targetPoint" />
          </mxGeometry>
        </mxCell>
        <mxCell id="XFGnVmIvgDXaTXO8uA-s-86" value="" style="endArrow=none;html=1;rounded=0;" parent="1" edge="1">
          <mxGeometry width="50" height="50" relative="1" as="geometry">
            <mxPoint x="-665" y="208" as="sourcePoint" />
            <mxPoint x="-665" y="148" as="targetPoint" />
          </mxGeometry>
        </mxCell>
        <mxCell id="XFGnVmIvgDXaTXO8uA-s-87" value="" style="shape=link;html=1;rounded=0;" parent="1" edge="1">
          <mxGeometry width="100" relative="1" as="geometry">
            <mxPoint x="-865.53" y="318" as="sourcePoint" />
            <mxPoint x="-865" y="678" as="targetPoint" />
          </mxGeometry>
        </mxCell>
        <mxCell id="XFGnVmIvgDXaTXO8uA-s-88" value="" style="endArrow=classic;html=1;rounded=0;" parent="1" edge="1">
          <mxGeometry width="50" height="50" relative="1" as="geometry">
            <mxPoint x="-865.53" y="318" as="sourcePoint" />
            <mxPoint x="-745.53" y="318" as="targetPoint" />
          </mxGeometry>
        </mxCell>
        <mxCell id="XFGnVmIvgDXaTXO8uA-s-89" value="" style="shape=link;html=1;rounded=0;" parent="1" edge="1">
          <mxGeometry width="100" relative="1" as="geometry">
            <mxPoint x="-744.0599999999997" y="318" as="sourcePoint" />
            <mxPoint x="-744" y="678" as="targetPoint" />
          </mxGeometry>
        </mxCell>
        <mxCell id="XFGnVmIvgDXaTXO8uA-s-90" value="" style="shape=link;html=1;rounded=0;" parent="1" edge="1">
          <mxGeometry width="100" relative="1" as="geometry">
            <mxPoint x="-625.53" y="358" as="sourcePoint" />
            <mxPoint x="-626.0000000000002" y="678" as="targetPoint" />
          </mxGeometry>
        </mxCell>
        <mxCell id="XFGnVmIvgDXaTXO8uA-s-91" value="" style="endArrow=classic;html=1;rounded=0;" parent="1" edge="1">
          <mxGeometry width="50" height="50" relative="1" as="geometry">
            <mxPoint x="-745.53" y="358" as="sourcePoint" />
            <mxPoint x="-625.53" y="358" as="targetPoint" />
          </mxGeometry>
        </mxCell>
        <mxCell id="XFGnVmIvgDXaTXO8uA-s-92" value="" style="shape=link;html=1;rounded=0;" parent="1" edge="1">
          <mxGeometry width="100" relative="1" as="geometry">
            <mxPoint x="-505.52999999999975" y="398" as="sourcePoint" />
            <mxPoint x="-505" y="528" as="targetPoint" />
          </mxGeometry>
        </mxCell>
        <mxCell id="XFGnVmIvgDXaTXO8uA-s-93" value="" style="endArrow=classic;html=1;rounded=0;" parent="1" edge="1">
          <mxGeometry width="50" height="50" relative="1" as="geometry">
            <mxPoint x="-625.53" y="398" as="sourcePoint" />
            <mxPoint x="-505.52999999999975" y="398" as="targetPoint" />
          </mxGeometry>
        </mxCell>
        <mxCell id="XFGnVmIvgDXaTXO8uA-s-94" value="" style="endArrow=classic;html=1;rounded=0;" parent="1" edge="1">
          <mxGeometry width="50" height="50" relative="1" as="geometry">
            <mxPoint x="-505.52999999999975" y="438" as="sourcePoint" />
            <mxPoint x="-265" y="438" as="targetPoint" />
          </mxGeometry>
        </mxCell>
        <mxCell id="XFGnVmIvgDXaTXO8uA-s-95" value="" style="ellipse;whiteSpace=wrap;html=1;labelBackgroundColor=#08FFFF;fillColor=#99FFFF;" parent="1" vertex="1">
          <mxGeometry x="-535" y="148" width="60" height="60" as="geometry" />
        </mxCell>
        <mxCell id="XFGnVmIvgDXaTXO8uA-s-96" value="" style="endArrow=none;html=1;rounded=0;entryX=0;entryY=0.5;entryDx=0;entryDy=0;" parent="1" target="XFGnVmIvgDXaTXO8uA-s-95" edge="1">
          <mxGeometry width="50" height="50" relative="1" as="geometry">
            <mxPoint x="-545" y="178" as="sourcePoint" />
            <mxPoint x="-225" y="298" as="targetPoint" />
          </mxGeometry>
        </mxCell>
        <mxCell id="XFGnVmIvgDXaTXO8uA-s-97" value="" style="endArrow=none;html=1;rounded=0;" parent="1" edge="1">
          <mxGeometry width="50" height="50" relative="1" as="geometry">
            <mxPoint x="-545" y="208" as="sourcePoint" />
            <mxPoint x="-545" y="148" as="targetPoint" />
          </mxGeometry>
        </mxCell>
        <mxCell id="XFGnVmIvgDXaTXO8uA-s-98" value="" style="ellipse;whiteSpace=wrap;html=1;labelBackgroundColor=#08FFFF;fillColor=#99FFFF;" parent="1" vertex="1">
          <mxGeometry x="-415" y="148" width="60" height="60" as="geometry" />
        </mxCell>
        <mxCell id="XFGnVmIvgDXaTXO8uA-s-99" value="" style="endArrow=none;html=1;rounded=0;entryX=0;entryY=0.5;entryDx=0;entryDy=0;" parent="1" target="XFGnVmIvgDXaTXO8uA-s-98" edge="1">
          <mxGeometry width="50" height="50" relative="1" as="geometry">
            <mxPoint x="-425" y="178" as="sourcePoint" />
            <mxPoint x="-105" y="298" as="targetPoint" />
          </mxGeometry>
        </mxCell>
        <mxCell id="XFGnVmIvgDXaTXO8uA-s-100" value="" style="endArrow=none;html=1;rounded=0;" parent="1" edge="1">
          <mxGeometry width="50" height="50" relative="1" as="geometry">
            <mxPoint x="-425" y="208" as="sourcePoint" />
            <mxPoint x="-425" y="148" as="targetPoint" />
          </mxGeometry>
        </mxCell>
        <mxCell id="XFGnVmIvgDXaTXO8uA-s-101" value="" style="ellipse;whiteSpace=wrap;html=1;labelBackgroundColor=#08FFFF;fillColor=#99FFFF;" parent="1" vertex="1">
          <mxGeometry x="-295" y="148" width="60" height="60" as="geometry" />
        </mxCell>
        <mxCell id="XFGnVmIvgDXaTXO8uA-s-102" value="" style="ellipse;whiteSpace=wrap;html=1;labelBackgroundColor=#08FFFF;fillColor=#99FFFF;" parent="1" vertex="1">
          <mxGeometry x="-175" y="148" width="60" height="60" as="geometry" />
        </mxCell>
        <mxCell id="XFGnVmIvgDXaTXO8uA-s-103" value="" style="endArrow=classic;html=1;rounded=0;" parent="1" edge="1">
          <mxGeometry width="50" height="50" relative="1" as="geometry">
            <mxPoint x="-262" y="148" as="sourcePoint" />
            <mxPoint x="-272" y="148" as="targetPoint" />
          </mxGeometry>
        </mxCell>
        <mxCell id="XFGnVmIvgDXaTXO8uA-s-104" value="" style="shape=link;html=1;rounded=0;" parent="1" edge="1">
          <mxGeometry width="100" relative="1" as="geometry">
            <mxPoint x="-266" y="438" as="sourcePoint" />
            <mxPoint x="-265" y="518" as="targetPoint" />
          </mxGeometry>
        </mxCell>
        <mxCell id="XFGnVmIvgDXaTXO8uA-s-105" value="" style="shape=link;html=1;rounded=0;" parent="1" edge="1">
          <mxGeometry width="100" relative="1" as="geometry">
            <mxPoint x="-145.52999999999975" y="467" as="sourcePoint" />
            <mxPoint x="-145" y="518" as="targetPoint" />
          </mxGeometry>
        </mxCell>
        <mxCell id="XFGnVmIvgDXaTXO8uA-s-106" value="" style="endArrow=classic;html=1;rounded=0;" parent="1" edge="1">
          <mxGeometry width="50" height="50" relative="1" as="geometry">
            <mxPoint x="-265.52999999999975" y="468" as="sourcePoint" />
            <mxPoint x="-145.52999999999975" y="468" as="targetPoint" />
          </mxGeometry>
        </mxCell>
        <mxCell id="XFGnVmIvgDXaTXO8uA-s-107" value="&lt;font style=&quot;font-size: 12px;&quot;&gt;Masuk ke halaman&lt;/font&gt;" style="text;strokeColor=none;fillColor=none;html=1;fontSize=24;fontStyle=1;verticalAlign=middle;align=center;" parent="1" vertex="1">
          <mxGeometry x="-855" y="288" width="100" height="30" as="geometry" />
        </mxCell>
        <mxCell id="XFGnVmIvgDXaTXO8uA-s-108" value="&lt;font style=&quot;font-size: 12px;&quot;&gt;Masuk ke halaman&lt;/font&gt;" style="text;strokeColor=none;fillColor=none;html=1;fontSize=24;fontStyle=1;verticalAlign=middle;align=center;" parent="1" vertex="1">
          <mxGeometry x="-735.53" y="328" width="100" height="30" as="geometry" />
        </mxCell>
        <mxCell id="XFGnVmIvgDXaTXO8uA-s-109" value="&lt;span style=&quot;font-size: 12px;&quot;&gt;Masuk ke halaman&lt;/span&gt;" style="text;strokeColor=none;fillColor=none;html=1;fontSize=24;fontStyle=1;verticalAlign=middle;align=center;" parent="1" vertex="1">
          <mxGeometry x="-615.53" y="368" width="100" height="30" as="geometry" />
        </mxCell>
        <mxCell id="XFGnVmIvgDXaTXO8uA-s-110" value="&lt;font style=&quot;font-size: 12px;&quot;&gt;Mengisi data&lt;/font&gt;" style="text;strokeColor=none;fillColor=none;html=1;fontSize=24;fontStyle=1;verticalAlign=middle;align=center;" parent="1" vertex="1">
          <mxGeometry x="-435" y="408" width="100" height="30" as="geometry" />
        </mxCell>
        <mxCell id="XFGnVmIvgDXaTXO8uA-s-111" value="Halaman menu utama" style="text;strokeColor=none;fillColor=none;fontSize=12;fontStyle=1;verticalAlign=middle;align=center;whiteSpace=wrap;" parent="1" vertex="1">
          <mxGeometry x="-793" y="218" width="100" height="30" as="geometry" />
        </mxCell>
        <mxCell id="XFGnVmIvgDXaTXO8uA-s-112" value="Halaman info gugatan" style="text;strokeColor=none;fillColor=none;fontSize=12;fontStyle=1;verticalAlign=middle;align=center;whiteSpace=wrap;" parent="1" vertex="1">
          <mxGeometry x="-675" y="218" width="100" height="30" as="geometry" />
        </mxCell>
        <mxCell id="XFGnVmIvgDXaTXO8uA-s-113" value="Halaman tambah nama hakim" style="text;strokeColor=none;fillColor=none;fontSize=12;fontStyle=1;verticalAlign=middle;align=center;whiteSpace=wrap;" parent="1" vertex="1">
          <mxGeometry x="-555" y="218" width="100" height="30" as="geometry" />
        </mxCell>
        <mxCell id="XFGnVmIvgDXaTXO8uA-s-114" value="Halaman ubah nama hakim" style="text;strokeColor=none;fillColor=none;fontSize=12;fontStyle=1;verticalAlign=middle;align=center;whiteSpace=wrap;" parent="1" vertex="1">
          <mxGeometry x="-435" y="218" width="100" height="30" as="geometry" />
        </mxCell>
        <mxCell id="XFGnVmIvgDXaTXO8uA-s-115" value="Validasi" style="text;strokeColor=none;fillColor=none;fontSize=12;fontStyle=1;verticalAlign=middle;align=center;whiteSpace=wrap;" parent="1" vertex="1">
          <mxGeometry x="-315" y="218" width="100" height="30" as="geometry" />
        </mxCell>
        <mxCell id="XFGnVmIvgDXaTXO8uA-s-116" value="Database" style="text;strokeColor=none;fillColor=none;fontSize=12;fontStyle=1;verticalAlign=middle;align=center;whiteSpace=wrap;" parent="1" vertex="1">
          <mxGeometry x="-195" y="218" width="100" height="30" as="geometry" />
        </mxCell>
        <mxCell id="XFGnVmIvgDXaTXO8uA-s-117" value="" style="endArrow=none;html=1;rounded=0;" parent="1" edge="1">
          <mxGeometry width="50" height="50" relative="1" as="geometry">
            <mxPoint x="-175.52999999999975" y="207.95000000000005" as="sourcePoint" />
            <mxPoint x="-115" y="207.95000000000005" as="targetPoint" />
          </mxGeometry>
        </mxCell>
        <mxCell id="XFGnVmIvgDXaTXO8uA-s-118" value="&lt;font style=&quot;font-size: 12px;&quot;&gt;Benar&lt;/font&gt;" style="text;strokeColor=none;fillColor=none;html=1;fontSize=24;fontStyle=1;verticalAlign=middle;align=center;" parent="1" vertex="1">
          <mxGeometry x="-255" y="438" width="100" height="30" as="geometry" />
        </mxCell>
        <mxCell id="XFGnVmIvgDXaTXO8uA-s-119" value="" style="endArrow=classic;html=1;rounded=0;" parent="1" edge="1">
          <mxGeometry width="50" height="50" relative="1" as="geometry">
            <mxPoint x="-265" y="518" as="sourcePoint" />
            <mxPoint x="-505" y="518" as="targetPoint" />
          </mxGeometry>
        </mxCell>
        <mxCell id="XFGnVmIvgDXaTXO8uA-s-120" value="&lt;font style=&quot;font-size: 12px;&quot;&gt;Salah&lt;/font&gt;" style="text;strokeColor=none;fillColor=none;html=1;fontSize=24;fontStyle=1;verticalAlign=middle;align=center;" parent="1" vertex="1">
          <mxGeometry x="-435" y="488" width="100" height="30" as="geometry" />
        </mxCell>
        <mxCell id="XFGnVmIvgDXaTXO8uA-s-121" value="" style="shape=link;html=1;rounded=0;" parent="1" edge="1">
          <mxGeometry width="100" relative="1" as="geometry">
            <mxPoint x="-385.52999999999975" y="548" as="sourcePoint" />
            <mxPoint x="-385" y="678" as="targetPoint" />
          </mxGeometry>
        </mxCell>
        <mxCell id="XFGnVmIvgDXaTXO8uA-s-122" value="" style="endArrow=classic;html=1;rounded=0;" parent="1" edge="1">
          <mxGeometry width="50" height="50" relative="1" as="geometry">
            <mxPoint x="-625.53" y="548" as="sourcePoint" />
            <mxPoint x="-385" y="548" as="targetPoint" />
          </mxGeometry>
        </mxCell>
        <mxCell id="XFGnVmIvgDXaTXO8uA-s-123" value="" style="endArrow=classic;html=1;rounded=0;" parent="1" edge="1">
          <mxGeometry width="50" height="50" relative="1" as="geometry">
            <mxPoint x="-385" y="588" as="sourcePoint" />
            <mxPoint x="-265" y="588" as="targetPoint" />
          </mxGeometry>
        </mxCell>
        <mxCell id="XFGnVmIvgDXaTXO8uA-s-124" value="" style="shape=link;html=1;rounded=0;" parent="1" edge="1">
          <mxGeometry width="100" relative="1" as="geometry">
            <mxPoint x="-266" y="588" as="sourcePoint" />
            <mxPoint x="-265" y="668" as="targetPoint" />
          </mxGeometry>
        </mxCell>
        <mxCell id="XFGnVmIvgDXaTXO8uA-s-125" value="" style="shape=link;html=1;rounded=0;" parent="1" edge="1">
          <mxGeometry width="100" relative="1" as="geometry">
            <mxPoint x="-145.52999999999975" y="617" as="sourcePoint" />
            <mxPoint x="-145" y="668" as="targetPoint" />
          </mxGeometry>
        </mxCell>
        <mxCell id="XFGnVmIvgDXaTXO8uA-s-126" value="" style="endArrow=classic;html=1;rounded=0;" parent="1" edge="1">
          <mxGeometry width="50" height="50" relative="1" as="geometry">
            <mxPoint x="-265.52999999999975" y="618" as="sourcePoint" />
            <mxPoint x="-145.52999999999975" y="618" as="targetPoint" />
          </mxGeometry>
        </mxCell>
        <mxCell id="XFGnVmIvgDXaTXO8uA-s-127" value="&lt;font style=&quot;font-size: 12px;&quot;&gt;Mengubah data&lt;/font&gt;" style="text;strokeColor=none;fillColor=none;html=1;fontSize=24;fontStyle=1;verticalAlign=middle;align=center;" parent="1" vertex="1">
          <mxGeometry x="-375" y="558" width="100" height="30" as="geometry" />
        </mxCell>
        <mxCell id="XFGnVmIvgDXaTXO8uA-s-128" value="&lt;font style=&quot;font-size: 12px;&quot;&gt;Benar&lt;/font&gt;" style="text;strokeColor=none;fillColor=none;html=1;fontSize=24;fontStyle=1;verticalAlign=middle;align=center;" parent="1" vertex="1">
          <mxGeometry x="-255" y="588" width="100" height="30" as="geometry" />
        </mxCell>
        <mxCell id="XFGnVmIvgDXaTXO8uA-s-129" value="" style="endArrow=classic;html=1;rounded=0;" parent="1" edge="1">
          <mxGeometry width="50" height="50" relative="1" as="geometry">
            <mxPoint x="-265" y="668" as="sourcePoint" />
            <mxPoint x="-505" y="668" as="targetPoint" />
          </mxGeometry>
        </mxCell>
        <mxCell id="XFGnVmIvgDXaTXO8uA-s-130" value="&lt;font style=&quot;font-size: 12px;&quot;&gt;Salah&lt;/font&gt;" style="text;strokeColor=none;fillColor=none;html=1;fontSize=24;fontStyle=1;verticalAlign=middle;align=center;" parent="1" vertex="1">
          <mxGeometry x="-385" y="638" width="100" height="30" as="geometry" />
        </mxCell>
        <mxCell id="XFGnVmIvgDXaTXO8uA-s-131" value="&lt;span style=&quot;font-size: 12px;&quot;&gt;Masuk ke halaman&lt;/span&gt;" style="text;strokeColor=none;fillColor=none;html=1;fontSize=24;fontStyle=1;verticalAlign=middle;align=center;" parent="1" vertex="1">
          <mxGeometry x="-545" y="522" width="100" height="30" as="geometry" />
        </mxCell>
        <mxCell id="XFGnVmIvgDXaTXO8uA-s-132" value="" style="shape=link;html=1;rounded=0;" parent="1" edge="1">
          <mxGeometry width="100" relative="1" as="geometry">
            <mxPoint x="-505" y="658" as="sourcePoint" />
            <mxPoint x="-505" y="678.5" as="targetPoint" />
          </mxGeometry>
        </mxCell>
        <mxCell id="XFGnVmIvgDXaTXO8uA-s-133" value="" style="endArrow=none;dashed=1;html=1;dashPattern=1 3;strokeWidth=2;rounded=0;fontSize=12;fontColor=none;" parent="1" edge="1">
          <mxGeometry width="50" height="50" relative="1" as="geometry">
            <mxPoint x="-865" y="318" as="sourcePoint" />
            <mxPoint x="-865" y="238" as="targetPoint" />
          </mxGeometry>
        </mxCell>
        <mxCell id="XFGnVmIvgDXaTXO8uA-s-134" value="" style="endArrow=none;dashed=1;html=1;dashPattern=1 3;strokeWidth=2;rounded=0;fontSize=12;fontColor=none;" parent="1" edge="1">
          <mxGeometry width="50" height="50" relative="1" as="geometry">
            <mxPoint x="-745" y="318" as="sourcePoint" />
            <mxPoint x="-745" y="248" as="targetPoint" />
          </mxGeometry>
        </mxCell>
        <mxCell id="XFGnVmIvgDXaTXO8uA-s-135" value="" style="endArrow=none;dashed=1;html=1;dashPattern=1 3;strokeWidth=2;rounded=0;fontSize=12;fontColor=none;entryX=0.5;entryY=1;entryDx=0;entryDy=0;" parent="1" target="XFGnVmIvgDXaTXO8uA-s-112" edge="1">
          <mxGeometry width="50" height="50" relative="1" as="geometry">
            <mxPoint x="-625.53" y="358" as="sourcePoint" />
            <mxPoint x="-625.53" y="288" as="targetPoint" />
          </mxGeometry>
        </mxCell>
        <mxCell id="XFGnVmIvgDXaTXO8uA-s-136" value="" style="endArrow=none;dashed=1;html=1;dashPattern=1 3;strokeWidth=2;rounded=0;fontSize=12;fontColor=none;entryX=0.5;entryY=1;entryDx=0;entryDy=0;" parent="1" edge="1">
          <mxGeometry width="50" height="50" relative="1" as="geometry">
            <mxPoint x="-505" y="398" as="sourcePoint" />
            <mxPoint x="-505" y="248" as="targetPoint" />
          </mxGeometry>
        </mxCell>
        <mxCell id="XFGnVmIvgDXaTXO8uA-s-137" value="" style="endArrow=none;dashed=1;html=1;dashPattern=1 3;strokeWidth=2;rounded=0;fontSize=12;fontColor=none;entryX=0.5;entryY=1;entryDx=0;entryDy=0;" parent="1" edge="1">
          <mxGeometry width="50" height="50" relative="1" as="geometry">
            <mxPoint x="-385" y="538" as="sourcePoint" />
            <mxPoint x="-385" y="248" as="targetPoint" />
          </mxGeometry>
        </mxCell>
        <mxCell id="XFGnVmIvgDXaTXO8uA-s-138" value="" style="endArrow=none;dashed=1;html=1;dashPattern=1 3;strokeWidth=2;rounded=0;fontSize=12;fontColor=none;" parent="1" edge="1">
          <mxGeometry width="50" height="50" relative="1" as="geometry">
            <mxPoint x="-266" y="438" as="sourcePoint" />
            <mxPoint x="-266" y="238" as="targetPoint" />
          </mxGeometry>
        </mxCell>
        <mxCell id="XFGnVmIvgDXaTXO8uA-s-139" value="" style="endArrow=none;dashed=1;html=1;dashPattern=1 3;strokeWidth=2;rounded=0;fontSize=12;fontColor=none;entryX=0.5;entryY=1;entryDx=0;entryDy=0;" parent="1" edge="1">
          <mxGeometry width="50" height="50" relative="1" as="geometry">
            <mxPoint x="-145" y="458" as="sourcePoint" />
            <mxPoint x="-145.25" y="248" as="targetPoint" />
          </mxGeometry>
        </mxCell>
        <mxCell id="XFGnVmIvgDXaTXO8uA-s-140" value="" style="endArrow=none;dashed=1;html=1;dashPattern=1 3;strokeWidth=2;rounded=0;fontSize=12;fontColor=none;entryX=0.5;entryY=1;entryDx=0;entryDy=0;" parent="1" edge="1">
          <mxGeometry width="50" height="50" relative="1" as="geometry">
            <mxPoint x="-146" y="618" as="sourcePoint" />
            <mxPoint x="-145.6199999999999" y="522" as="targetPoint" />
          </mxGeometry>
        </mxCell>
        <mxCell id="XFGnVmIvgDXaTXO8uA-s-141" value="" style="endArrow=none;dashed=1;html=1;dashPattern=1 3;strokeWidth=2;rounded=0;fontSize=12;fontColor=none;entryX=0.5;entryY=1;entryDx=0;entryDy=0;" parent="1" edge="1">
          <mxGeometry width="50" height="50" relative="1" as="geometry">
            <mxPoint x="-505" y="658" as="sourcePoint" />
            <mxPoint x="-505.25" y="525" as="targetPoint" />
          </mxGeometry>
        </mxCell>
        <mxCell id="XFGnVmIvgDXaTXO8uA-s-144" value="Hakim" style="shape=umlActor;verticalLabelPosition=bottom;verticalAlign=top;html=1;outlineConnect=0;" parent="1" vertex="1">
          <mxGeometry x="-1740" y="148" width="30" height="60" as="geometry" />
        </mxCell>
        <mxCell id="XFGnVmIvgDXaTXO8uA-s-145" value="" style="ellipse;whiteSpace=wrap;html=1;labelBackgroundColor=default;fillColor=#99FFFF;" parent="1" vertex="1">
          <mxGeometry x="-1633" y="148" width="60" height="60" as="geometry" />
        </mxCell>
        <mxCell id="XFGnVmIvgDXaTXO8uA-s-146" value="" style="endArrow=none;html=1;rounded=0;entryX=0;entryY=0.5;entryDx=0;entryDy=0;" parent="1" target="XFGnVmIvgDXaTXO8uA-s-145" edge="1">
          <mxGeometry width="50" height="50" relative="1" as="geometry">
            <mxPoint x="-1642.9999999999998" y="178" as="sourcePoint" />
            <mxPoint x="-1323" y="298" as="targetPoint" />
          </mxGeometry>
        </mxCell>
        <mxCell id="XFGnVmIvgDXaTXO8uA-s-147" value="" style="endArrow=none;html=1;rounded=0;" parent="1" edge="1">
          <mxGeometry width="50" height="50" relative="1" as="geometry">
            <mxPoint x="-1642.9999999999998" y="208" as="sourcePoint" />
            <mxPoint x="-1642.9999999999998" y="148" as="targetPoint" />
          </mxGeometry>
        </mxCell>
        <mxCell id="XFGnVmIvgDXaTXO8uA-s-148" value="" style="ellipse;whiteSpace=wrap;html=1;labelBackgroundColor=#08FFFF;fillColor=#99FFFF;" parent="1" vertex="1">
          <mxGeometry x="-1515" y="148" width="60" height="60" as="geometry" />
        </mxCell>
        <mxCell id="XFGnVmIvgDXaTXO8uA-s-149" value="" style="endArrow=none;html=1;rounded=0;entryX=0;entryY=0.5;entryDx=0;entryDy=0;" parent="1" target="XFGnVmIvgDXaTXO8uA-s-148" edge="1">
          <mxGeometry width="50" height="50" relative="1" as="geometry">
            <mxPoint x="-1525" y="178" as="sourcePoint" />
            <mxPoint x="-1205" y="298" as="targetPoint" />
          </mxGeometry>
        </mxCell>
        <mxCell id="XFGnVmIvgDXaTXO8uA-s-150" value="" style="endArrow=none;html=1;rounded=0;" parent="1" edge="1">
          <mxGeometry width="50" height="50" relative="1" as="geometry">
            <mxPoint x="-1525" y="208" as="sourcePoint" />
            <mxPoint x="-1525" y="148" as="targetPoint" />
          </mxGeometry>
        </mxCell>
        <mxCell id="XFGnVmIvgDXaTXO8uA-s-151" value="" style="shape=link;html=1;rounded=0;" parent="1" edge="1">
          <mxGeometry width="100" relative="1" as="geometry">
            <mxPoint x="-1725.53" y="318" as="sourcePoint" />
            <mxPoint x="-1725" y="678" as="targetPoint" />
          </mxGeometry>
        </mxCell>
        <mxCell id="XFGnVmIvgDXaTXO8uA-s-152" value="" style="endArrow=classic;html=1;rounded=0;" parent="1" edge="1">
          <mxGeometry width="50" height="50" relative="1" as="geometry">
            <mxPoint x="-1725.53" y="318" as="sourcePoint" />
            <mxPoint x="-1605.53" y="318" as="targetPoint" />
          </mxGeometry>
        </mxCell>
        <mxCell id="XFGnVmIvgDXaTXO8uA-s-153" value="" style="shape=link;html=1;rounded=0;" parent="1" edge="1">
          <mxGeometry width="100" relative="1" as="geometry">
            <mxPoint x="-1604.06" y="318" as="sourcePoint" />
            <mxPoint x="-1603.9999999999998" y="678" as="targetPoint" />
          </mxGeometry>
        </mxCell>
        <mxCell id="XFGnVmIvgDXaTXO8uA-s-154" value="" style="shape=link;html=1;rounded=0;" parent="1" edge="1">
          <mxGeometry width="100" relative="1" as="geometry">
            <mxPoint x="-1485.5299999999997" y="358" as="sourcePoint" />
            <mxPoint x="-1486" y="678" as="targetPoint" />
          </mxGeometry>
        </mxCell>
        <mxCell id="XFGnVmIvgDXaTXO8uA-s-155" value="" style="endArrow=classic;html=1;rounded=0;" parent="1" edge="1">
          <mxGeometry width="50" height="50" relative="1" as="geometry">
            <mxPoint x="-1605.53" y="358" as="sourcePoint" />
            <mxPoint x="-1485.5299999999997" y="358" as="targetPoint" />
          </mxGeometry>
        </mxCell>
        <mxCell id="XFGnVmIvgDXaTXO8uA-s-156" value="" style="shape=link;html=1;rounded=0;" parent="1" edge="1">
          <mxGeometry width="100" relative="1" as="geometry">
            <mxPoint x="-1365.5299999999997" y="398" as="sourcePoint" />
            <mxPoint x="-1365" y="528" as="targetPoint" />
          </mxGeometry>
        </mxCell>
        <mxCell id="XFGnVmIvgDXaTXO8uA-s-157" value="" style="endArrow=classic;html=1;rounded=0;" parent="1" edge="1">
          <mxGeometry width="50" height="50" relative="1" as="geometry">
            <mxPoint x="-1485.5299999999997" y="398" as="sourcePoint" />
            <mxPoint x="-1365.5299999999997" y="398" as="targetPoint" />
          </mxGeometry>
        </mxCell>
        <mxCell id="XFGnVmIvgDXaTXO8uA-s-158" value="" style="endArrow=classic;html=1;rounded=0;" parent="1" edge="1">
          <mxGeometry width="50" height="50" relative="1" as="geometry">
            <mxPoint x="-1365.5299999999997" y="438" as="sourcePoint" />
            <mxPoint x="-1125" y="438" as="targetPoint" />
          </mxGeometry>
        </mxCell>
        <mxCell id="XFGnVmIvgDXaTXO8uA-s-159" value="" style="ellipse;whiteSpace=wrap;html=1;labelBackgroundColor=#08FFFF;fillColor=#99FFFF;" parent="1" vertex="1">
          <mxGeometry x="-1395" y="148" width="60" height="60" as="geometry" />
        </mxCell>
        <mxCell id="XFGnVmIvgDXaTXO8uA-s-160" value="" style="endArrow=none;html=1;rounded=0;entryX=0;entryY=0.5;entryDx=0;entryDy=0;" parent="1" target="XFGnVmIvgDXaTXO8uA-s-159" edge="1">
          <mxGeometry width="50" height="50" relative="1" as="geometry">
            <mxPoint x="-1405" y="178" as="sourcePoint" />
            <mxPoint x="-1085" y="298" as="targetPoint" />
          </mxGeometry>
        </mxCell>
        <mxCell id="XFGnVmIvgDXaTXO8uA-s-161" value="" style="endArrow=none;html=1;rounded=0;" parent="1" edge="1">
          <mxGeometry width="50" height="50" relative="1" as="geometry">
            <mxPoint x="-1405" y="208" as="sourcePoint" />
            <mxPoint x="-1405" y="148" as="targetPoint" />
          </mxGeometry>
        </mxCell>
        <mxCell id="XFGnVmIvgDXaTXO8uA-s-162" value="" style="ellipse;whiteSpace=wrap;html=1;labelBackgroundColor=#08FFFF;fillColor=#99FFFF;" parent="1" vertex="1">
          <mxGeometry x="-1275" y="148" width="60" height="60" as="geometry" />
        </mxCell>
        <mxCell id="XFGnVmIvgDXaTXO8uA-s-163" value="" style="endArrow=none;html=1;rounded=0;entryX=0;entryY=0.5;entryDx=0;entryDy=0;" parent="1" target="XFGnVmIvgDXaTXO8uA-s-162" edge="1">
          <mxGeometry width="50" height="50" relative="1" as="geometry">
            <mxPoint x="-1285" y="178" as="sourcePoint" />
            <mxPoint x="-965" y="298" as="targetPoint" />
          </mxGeometry>
        </mxCell>
        <mxCell id="XFGnVmIvgDXaTXO8uA-s-164" value="" style="endArrow=none;html=1;rounded=0;" parent="1" edge="1">
          <mxGeometry width="50" height="50" relative="1" as="geometry">
            <mxPoint x="-1285" y="208" as="sourcePoint" />
            <mxPoint x="-1285" y="148" as="targetPoint" />
          </mxGeometry>
        </mxCell>
        <mxCell id="XFGnVmIvgDXaTXO8uA-s-165" value="" style="ellipse;whiteSpace=wrap;html=1;labelBackgroundColor=#08FFFF;fillColor=#99FFFF;" parent="1" vertex="1">
          <mxGeometry x="-1155" y="148" width="60" height="60" as="geometry" />
        </mxCell>
        <mxCell id="XFGnVmIvgDXaTXO8uA-s-166" value="" style="ellipse;whiteSpace=wrap;html=1;labelBackgroundColor=#08FFFF;fillColor=#99FFFF;" parent="1" vertex="1">
          <mxGeometry x="-1035" y="148" width="60" height="60" as="geometry" />
        </mxCell>
        <mxCell id="XFGnVmIvgDXaTXO8uA-s-167" value="" style="endArrow=classic;html=1;rounded=0;" parent="1" edge="1">
          <mxGeometry width="50" height="50" relative="1" as="geometry">
            <mxPoint x="-1122" y="148" as="sourcePoint" />
            <mxPoint x="-1132" y="148" as="targetPoint" />
          </mxGeometry>
        </mxCell>
        <mxCell id="XFGnVmIvgDXaTXO8uA-s-168" value="" style="shape=link;html=1;rounded=0;" parent="1" edge="1">
          <mxGeometry width="100" relative="1" as="geometry">
            <mxPoint x="-1126" y="438" as="sourcePoint" />
            <mxPoint x="-1125" y="518" as="targetPoint" />
          </mxGeometry>
        </mxCell>
        <mxCell id="XFGnVmIvgDXaTXO8uA-s-169" value="" style="shape=link;html=1;rounded=0;" parent="1" edge="1">
          <mxGeometry width="100" relative="1" as="geometry">
            <mxPoint x="-1005.5299999999997" y="467" as="sourcePoint" />
            <mxPoint x="-1005" y="518" as="targetPoint" />
          </mxGeometry>
        </mxCell>
        <mxCell id="XFGnVmIvgDXaTXO8uA-s-170" value="" style="endArrow=classic;html=1;rounded=0;" parent="1" edge="1">
          <mxGeometry width="50" height="50" relative="1" as="geometry">
            <mxPoint x="-1125.5299999999997" y="468" as="sourcePoint" />
            <mxPoint x="-1005.5299999999997" y="468" as="targetPoint" />
          </mxGeometry>
        </mxCell>
        <mxCell id="XFGnVmIvgDXaTXO8uA-s-171" value="&lt;font style=&quot;font-size: 12px;&quot;&gt;Masuk ke halaman&lt;/font&gt;" style="text;strokeColor=none;fillColor=none;html=1;fontSize=24;fontStyle=1;verticalAlign=middle;align=center;" parent="1" vertex="1">
          <mxGeometry x="-1715" y="288" width="100" height="30" as="geometry" />
        </mxCell>
        <mxCell id="XFGnVmIvgDXaTXO8uA-s-172" value="&lt;font style=&quot;font-size: 12px;&quot;&gt;Masuk ke halaman&lt;/font&gt;" style="text;strokeColor=none;fillColor=none;html=1;fontSize=24;fontStyle=1;verticalAlign=middle;align=center;" parent="1" vertex="1">
          <mxGeometry x="-1595.53" y="328" width="100" height="30" as="geometry" />
        </mxCell>
        <mxCell id="XFGnVmIvgDXaTXO8uA-s-173" value="&lt;span style=&quot;font-size: 12px;&quot;&gt;Masuk ke halaman&lt;/span&gt;" style="text;strokeColor=none;fillColor=none;html=1;fontSize=24;fontStyle=1;verticalAlign=middle;align=center;" parent="1" vertex="1">
          <mxGeometry x="-1475.53" y="368" width="100" height="30" as="geometry" />
        </mxCell>
        <mxCell id="XFGnVmIvgDXaTXO8uA-s-174" value="&lt;font style=&quot;font-size: 12px;&quot;&gt;Mengisi data&lt;/font&gt;" style="text;strokeColor=none;fillColor=none;html=1;fontSize=24;fontStyle=1;verticalAlign=middle;align=center;" parent="1" vertex="1">
          <mxGeometry x="-1295" y="408" width="100" height="30" as="geometry" />
        </mxCell>
        <mxCell id="XFGnVmIvgDXaTXO8uA-s-175" value="Halaman menu utama" style="text;strokeColor=none;fillColor=none;fontSize=12;fontStyle=1;verticalAlign=middle;align=center;whiteSpace=wrap;" parent="1" vertex="1">
          <mxGeometry x="-1653" y="218" width="100" height="30" as="geometry" />
        </mxCell>
        <mxCell id="XFGnVmIvgDXaTXO8uA-s-176" value="Halaman info gugatan" style="text;strokeColor=none;fillColor=none;fontSize=12;fontStyle=1;verticalAlign=middle;align=center;whiteSpace=wrap;" parent="1" vertex="1">
          <mxGeometry x="-1535" y="218" width="100" height="30" as="geometry" />
        </mxCell>
        <mxCell id="XFGnVmIvgDXaTXO8uA-s-177" value="Halaman tambah tanggal dan hasil sidang" style="text;strokeColor=none;fillColor=none;fontSize=12;fontStyle=1;verticalAlign=middle;align=center;whiteSpace=wrap;" parent="1" vertex="1">
          <mxGeometry x="-1415" y="228" width="100" height="30" as="geometry" />
        </mxCell>
        <mxCell id="XFGnVmIvgDXaTXO8uA-s-178" value="Halaman ubah tanggal dan hasil sidang" style="text;strokeColor=none;fillColor=none;fontSize=12;fontStyle=1;verticalAlign=middle;align=center;whiteSpace=wrap;" parent="1" vertex="1">
          <mxGeometry x="-1295" y="228" width="100" height="30" as="geometry" />
        </mxCell>
        <mxCell id="XFGnVmIvgDXaTXO8uA-s-179" value="Validasi" style="text;strokeColor=none;fillColor=none;fontSize=12;fontStyle=1;verticalAlign=middle;align=center;whiteSpace=wrap;" parent="1" vertex="1">
          <mxGeometry x="-1175" y="218" width="100" height="30" as="geometry" />
        </mxCell>
        <mxCell id="XFGnVmIvgDXaTXO8uA-s-180" value="Database" style="text;strokeColor=none;fillColor=none;fontSize=12;fontStyle=1;verticalAlign=middle;align=center;whiteSpace=wrap;" parent="1" vertex="1">
          <mxGeometry x="-1055" y="218" width="100" height="30" as="geometry" />
        </mxCell>
        <mxCell id="XFGnVmIvgDXaTXO8uA-s-181" value="" style="endArrow=none;html=1;rounded=0;" parent="1" edge="1">
          <mxGeometry width="50" height="50" relative="1" as="geometry">
            <mxPoint x="-1035.5299999999997" y="207.95000000000005" as="sourcePoint" />
            <mxPoint x="-975" y="207.95000000000005" as="targetPoint" />
          </mxGeometry>
        </mxCell>
        <mxCell id="XFGnVmIvgDXaTXO8uA-s-182" value="&lt;font style=&quot;font-size: 12px;&quot;&gt;Benar&lt;/font&gt;" style="text;strokeColor=none;fillColor=none;html=1;fontSize=24;fontStyle=1;verticalAlign=middle;align=center;" parent="1" vertex="1">
          <mxGeometry x="-1115" y="438" width="100" height="30" as="geometry" />
        </mxCell>
        <mxCell id="XFGnVmIvgDXaTXO8uA-s-183" value="" style="endArrow=classic;html=1;rounded=0;" parent="1" edge="1">
          <mxGeometry width="50" height="50" relative="1" as="geometry">
            <mxPoint x="-1125" y="518" as="sourcePoint" />
            <mxPoint x="-1365" y="518" as="targetPoint" />
          </mxGeometry>
        </mxCell>
        <mxCell id="XFGnVmIvgDXaTXO8uA-s-184" value="&lt;font style=&quot;font-size: 12px;&quot;&gt;Salah&lt;/font&gt;" style="text;strokeColor=none;fillColor=none;html=1;fontSize=24;fontStyle=1;verticalAlign=middle;align=center;" parent="1" vertex="1">
          <mxGeometry x="-1295" y="488" width="100" height="30" as="geometry" />
        </mxCell>
        <mxCell id="XFGnVmIvgDXaTXO8uA-s-185" value="" style="shape=link;html=1;rounded=0;" parent="1" edge="1">
          <mxGeometry width="100" relative="1" as="geometry">
            <mxPoint x="-1245.5299999999997" y="548" as="sourcePoint" />
            <mxPoint x="-1245" y="678" as="targetPoint" />
          </mxGeometry>
        </mxCell>
        <mxCell id="XFGnVmIvgDXaTXO8uA-s-186" value="" style="endArrow=classic;html=1;rounded=0;" parent="1" edge="1">
          <mxGeometry width="50" height="50" relative="1" as="geometry">
            <mxPoint x="-1485.5299999999997" y="548" as="sourcePoint" />
            <mxPoint x="-1245" y="548" as="targetPoint" />
          </mxGeometry>
        </mxCell>
        <mxCell id="XFGnVmIvgDXaTXO8uA-s-187" value="" style="endArrow=classic;html=1;rounded=0;" parent="1" edge="1">
          <mxGeometry width="50" height="50" relative="1" as="geometry">
            <mxPoint x="-1245" y="588" as="sourcePoint" />
            <mxPoint x="-1125" y="588" as="targetPoint" />
          </mxGeometry>
        </mxCell>
        <mxCell id="XFGnVmIvgDXaTXO8uA-s-188" value="" style="shape=link;html=1;rounded=0;" parent="1" edge="1">
          <mxGeometry width="100" relative="1" as="geometry">
            <mxPoint x="-1126" y="588" as="sourcePoint" />
            <mxPoint x="-1125" y="668" as="targetPoint" />
          </mxGeometry>
        </mxCell>
        <mxCell id="XFGnVmIvgDXaTXO8uA-s-189" value="" style="shape=link;html=1;rounded=0;" parent="1" edge="1">
          <mxGeometry width="100" relative="1" as="geometry">
            <mxPoint x="-1005.5299999999997" y="617" as="sourcePoint" />
            <mxPoint x="-1005" y="668" as="targetPoint" />
          </mxGeometry>
        </mxCell>
        <mxCell id="XFGnVmIvgDXaTXO8uA-s-190" value="" style="endArrow=classic;html=1;rounded=0;" parent="1" edge="1">
          <mxGeometry width="50" height="50" relative="1" as="geometry">
            <mxPoint x="-1125.5299999999997" y="618" as="sourcePoint" />
            <mxPoint x="-1005.5299999999997" y="618" as="targetPoint" />
          </mxGeometry>
        </mxCell>
        <mxCell id="XFGnVmIvgDXaTXO8uA-s-191" value="&lt;font style=&quot;font-size: 12px;&quot;&gt;Mengubah data&lt;/font&gt;" style="text;strokeColor=none;fillColor=none;html=1;fontSize=24;fontStyle=1;verticalAlign=middle;align=center;" parent="1" vertex="1">
          <mxGeometry x="-1235" y="558" width="100" height="30" as="geometry" />
        </mxCell>
        <mxCell id="XFGnVmIvgDXaTXO8uA-s-192" value="&lt;font style=&quot;font-size: 12px;&quot;&gt;Benar&lt;/font&gt;" style="text;strokeColor=none;fillColor=none;html=1;fontSize=24;fontStyle=1;verticalAlign=middle;align=center;" parent="1" vertex="1">
          <mxGeometry x="-1115" y="588" width="100" height="30" as="geometry" />
        </mxCell>
        <mxCell id="XFGnVmIvgDXaTXO8uA-s-193" value="" style="endArrow=classic;html=1;rounded=0;" parent="1" edge="1">
          <mxGeometry width="50" height="50" relative="1" as="geometry">
            <mxPoint x="-1125" y="668" as="sourcePoint" />
            <mxPoint x="-1365" y="668" as="targetPoint" />
          </mxGeometry>
        </mxCell>
        <mxCell id="XFGnVmIvgDXaTXO8uA-s-194" value="&lt;font style=&quot;font-size: 12px;&quot;&gt;Salah&lt;/font&gt;" style="text;strokeColor=none;fillColor=none;html=1;fontSize=24;fontStyle=1;verticalAlign=middle;align=center;" parent="1" vertex="1">
          <mxGeometry x="-1245" y="638" width="100" height="30" as="geometry" />
        </mxCell>
        <mxCell id="XFGnVmIvgDXaTXO8uA-s-195" value="&lt;span style=&quot;font-size: 12px;&quot;&gt;Masuk ke halaman&lt;/span&gt;" style="text;strokeColor=none;fillColor=none;html=1;fontSize=24;fontStyle=1;verticalAlign=middle;align=center;" parent="1" vertex="1">
          <mxGeometry x="-1405" y="522" width="100" height="30" as="geometry" />
        </mxCell>
        <mxCell id="XFGnVmIvgDXaTXO8uA-s-196" value="" style="shape=link;html=1;rounded=0;" parent="1" edge="1">
          <mxGeometry width="100" relative="1" as="geometry">
            <mxPoint x="-1365" y="658" as="sourcePoint" />
            <mxPoint x="-1365" y="678.5" as="targetPoint" />
          </mxGeometry>
        </mxCell>
        <mxCell id="XFGnVmIvgDXaTXO8uA-s-197" value="" style="endArrow=none;dashed=1;html=1;dashPattern=1 3;strokeWidth=2;rounded=0;fontSize=12;fontColor=none;" parent="1" edge="1">
          <mxGeometry width="50" height="50" relative="1" as="geometry">
            <mxPoint x="-1725" y="318" as="sourcePoint" />
            <mxPoint x="-1725" y="238" as="targetPoint" />
          </mxGeometry>
        </mxCell>
        <mxCell id="XFGnVmIvgDXaTXO8uA-s-198" value="" style="endArrow=none;dashed=1;html=1;dashPattern=1 3;strokeWidth=2;rounded=0;fontSize=12;fontColor=none;" parent="1" edge="1">
          <mxGeometry width="50" height="50" relative="1" as="geometry">
            <mxPoint x="-1605" y="318" as="sourcePoint" />
            <mxPoint x="-1605" y="248" as="targetPoint" />
          </mxGeometry>
        </mxCell>
        <mxCell id="XFGnVmIvgDXaTXO8uA-s-199" value="" style="endArrow=none;dashed=1;html=1;dashPattern=1 3;strokeWidth=2;rounded=0;fontSize=12;fontColor=none;entryX=0.5;entryY=1;entryDx=0;entryDy=0;" parent="1" target="XFGnVmIvgDXaTXO8uA-s-176" edge="1">
          <mxGeometry width="50" height="50" relative="1" as="geometry">
            <mxPoint x="-1485.5299999999997" y="358" as="sourcePoint" />
            <mxPoint x="-1485.53" y="288" as="targetPoint" />
          </mxGeometry>
        </mxCell>
        <mxCell id="XFGnVmIvgDXaTXO8uA-s-200" value="" style="endArrow=none;dashed=1;html=1;dashPattern=1 3;strokeWidth=2;rounded=0;fontSize=12;fontColor=none;" parent="1" edge="1">
          <mxGeometry width="50" height="50" relative="1" as="geometry">
            <mxPoint x="-1365" y="398" as="sourcePoint" />
            <mxPoint x="-1365" y="268" as="targetPoint" />
          </mxGeometry>
        </mxCell>
        <mxCell id="XFGnVmIvgDXaTXO8uA-s-201" value="" style="endArrow=none;dashed=1;html=1;dashPattern=1 3;strokeWidth=2;rounded=0;fontSize=12;fontColor=none;" parent="1" edge="1">
          <mxGeometry width="50" height="50" relative="1" as="geometry">
            <mxPoint x="-1245" y="538" as="sourcePoint" />
            <mxPoint x="-1245" y="268" as="targetPoint" />
          </mxGeometry>
        </mxCell>
        <mxCell id="XFGnVmIvgDXaTXO8uA-s-202" value="" style="endArrow=none;dashed=1;html=1;dashPattern=1 3;strokeWidth=2;rounded=0;fontSize=12;fontColor=none;" parent="1" edge="1">
          <mxGeometry width="50" height="50" relative="1" as="geometry">
            <mxPoint x="-1126" y="438" as="sourcePoint" />
            <mxPoint x="-1126" y="238" as="targetPoint" />
          </mxGeometry>
        </mxCell>
        <mxCell id="XFGnVmIvgDXaTXO8uA-s-203" value="" style="endArrow=none;dashed=1;html=1;dashPattern=1 3;strokeWidth=2;rounded=0;fontSize=12;fontColor=none;entryX=0.5;entryY=1;entryDx=0;entryDy=0;" parent="1" edge="1">
          <mxGeometry width="50" height="50" relative="1" as="geometry">
            <mxPoint x="-1005" y="458" as="sourcePoint" />
            <mxPoint x="-1005.25" y="248" as="targetPoint" />
          </mxGeometry>
        </mxCell>
        <mxCell id="XFGnVmIvgDXaTXO8uA-s-204" value="" style="endArrow=none;dashed=1;html=1;dashPattern=1 3;strokeWidth=2;rounded=0;fontSize=12;fontColor=none;entryX=0.5;entryY=1;entryDx=0;entryDy=0;" parent="1" edge="1">
          <mxGeometry width="50" height="50" relative="1" as="geometry">
            <mxPoint x="-1006" y="618" as="sourcePoint" />
            <mxPoint x="-1005.6199999999999" y="522" as="targetPoint" />
          </mxGeometry>
        </mxCell>
        <mxCell id="XFGnVmIvgDXaTXO8uA-s-205" value="" style="endArrow=none;dashed=1;html=1;dashPattern=1 3;strokeWidth=2;rounded=0;fontSize=12;fontColor=none;entryX=0.5;entryY=1;entryDx=0;entryDy=0;" parent="1" edge="1">
          <mxGeometry width="50" height="50" relative="1" as="geometry">
            <mxPoint x="-1365" y="658" as="sourcePoint" />
            <mxPoint x="-1365.25" y="525" as="targetPoint" />
          </mxGeometry>
        </mxCell>
        <mxCell id="XFGnVmIvgDXaTXO8uA-s-207" value="Panitera" style="shape=umlActor;verticalLabelPosition=bottom;verticalAlign=top;html=1;outlineConnect=0;" parent="1" vertex="1">
          <mxGeometry x="-2620" y="148" width="30" height="60" as="geometry" />
        </mxCell>
        <mxCell id="XFGnVmIvgDXaTXO8uA-s-208" value="" style="ellipse;whiteSpace=wrap;html=1;labelBackgroundColor=default;fillColor=#99FFFF;" parent="1" vertex="1">
          <mxGeometry x="-2513" y="148" width="60" height="60" as="geometry" />
        </mxCell>
        <mxCell id="XFGnVmIvgDXaTXO8uA-s-209" value="" style="endArrow=none;html=1;rounded=0;entryX=0;entryY=0.5;entryDx=0;entryDy=0;" parent="1" target="XFGnVmIvgDXaTXO8uA-s-208" edge="1">
          <mxGeometry width="50" height="50" relative="1" as="geometry">
            <mxPoint x="-2523" y="178" as="sourcePoint" />
            <mxPoint x="-2203" y="298" as="targetPoint" />
          </mxGeometry>
        </mxCell>
        <mxCell id="XFGnVmIvgDXaTXO8uA-s-210" value="" style="endArrow=none;html=1;rounded=0;" parent="1" edge="1">
          <mxGeometry width="50" height="50" relative="1" as="geometry">
            <mxPoint x="-2523" y="208" as="sourcePoint" />
            <mxPoint x="-2523" y="148" as="targetPoint" />
          </mxGeometry>
        </mxCell>
        <mxCell id="XFGnVmIvgDXaTXO8uA-s-211" value="" style="ellipse;whiteSpace=wrap;html=1;labelBackgroundColor=#08FFFF;fillColor=#99FFFF;" parent="1" vertex="1">
          <mxGeometry x="-2395" y="148" width="60" height="60" as="geometry" />
        </mxCell>
        <mxCell id="XFGnVmIvgDXaTXO8uA-s-212" value="" style="endArrow=none;html=1;rounded=0;entryX=0;entryY=0.5;entryDx=0;entryDy=0;" parent="1" target="XFGnVmIvgDXaTXO8uA-s-211" edge="1">
          <mxGeometry width="50" height="50" relative="1" as="geometry">
            <mxPoint x="-2405" y="178" as="sourcePoint" />
            <mxPoint x="-2085" y="298" as="targetPoint" />
          </mxGeometry>
        </mxCell>
        <mxCell id="XFGnVmIvgDXaTXO8uA-s-213" value="" style="endArrow=none;html=1;rounded=0;" parent="1" edge="1">
          <mxGeometry width="50" height="50" relative="1" as="geometry">
            <mxPoint x="-2405" y="208" as="sourcePoint" />
            <mxPoint x="-2405" y="148" as="targetPoint" />
          </mxGeometry>
        </mxCell>
        <mxCell id="XFGnVmIvgDXaTXO8uA-s-214" value="" style="shape=link;html=1;rounded=0;" parent="1" edge="1">
          <mxGeometry width="100" relative="1" as="geometry">
            <mxPoint x="-2605.5299999999997" y="318" as="sourcePoint" />
            <mxPoint x="-2605" y="678" as="targetPoint" />
          </mxGeometry>
        </mxCell>
        <mxCell id="XFGnVmIvgDXaTXO8uA-s-215" value="" style="endArrow=classic;html=1;rounded=0;" parent="1" edge="1">
          <mxGeometry width="50" height="50" relative="1" as="geometry">
            <mxPoint x="-2605.5299999999997" y="318" as="sourcePoint" />
            <mxPoint x="-2485.5299999999997" y="318" as="targetPoint" />
          </mxGeometry>
        </mxCell>
        <mxCell id="XFGnVmIvgDXaTXO8uA-s-216" value="" style="shape=link;html=1;rounded=0;" parent="1" edge="1">
          <mxGeometry width="100" relative="1" as="geometry">
            <mxPoint x="-2484.06" y="318" as="sourcePoint" />
            <mxPoint x="-2484" y="678" as="targetPoint" />
          </mxGeometry>
        </mxCell>
        <mxCell id="XFGnVmIvgDXaTXO8uA-s-217" value="" style="shape=link;html=1;rounded=0;" parent="1" edge="1">
          <mxGeometry width="100" relative="1" as="geometry">
            <mxPoint x="-2365.5299999999997" y="358" as="sourcePoint" />
            <mxPoint x="-2366" y="678" as="targetPoint" />
          </mxGeometry>
        </mxCell>
        <mxCell id="XFGnVmIvgDXaTXO8uA-s-218" value="" style="endArrow=classic;html=1;rounded=0;" parent="1" edge="1">
          <mxGeometry width="50" height="50" relative="1" as="geometry">
            <mxPoint x="-2485.5299999999997" y="358" as="sourcePoint" />
            <mxPoint x="-2365.5299999999997" y="358" as="targetPoint" />
          </mxGeometry>
        </mxCell>
        <mxCell id="XFGnVmIvgDXaTXO8uA-s-219" value="" style="shape=link;html=1;rounded=0;" parent="1" edge="1">
          <mxGeometry width="100" relative="1" as="geometry">
            <mxPoint x="-2245.5299999999997" y="398" as="sourcePoint" />
            <mxPoint x="-2245" y="528" as="targetPoint" />
          </mxGeometry>
        </mxCell>
        <mxCell id="XFGnVmIvgDXaTXO8uA-s-220" value="" style="endArrow=classic;html=1;rounded=0;" parent="1" edge="1">
          <mxGeometry width="50" height="50" relative="1" as="geometry">
            <mxPoint x="-2365.5299999999997" y="398" as="sourcePoint" />
            <mxPoint x="-2245.5299999999997" y="398" as="targetPoint" />
          </mxGeometry>
        </mxCell>
        <mxCell id="XFGnVmIvgDXaTXO8uA-s-221" value="" style="endArrow=classic;html=1;rounded=0;" parent="1" edge="1">
          <mxGeometry width="50" height="50" relative="1" as="geometry">
            <mxPoint x="-2245.5299999999997" y="438" as="sourcePoint" />
            <mxPoint x="-2005" y="438" as="targetPoint" />
          </mxGeometry>
        </mxCell>
        <mxCell id="XFGnVmIvgDXaTXO8uA-s-222" value="" style="ellipse;whiteSpace=wrap;html=1;labelBackgroundColor=#08FFFF;fillColor=#99FFFF;" parent="1" vertex="1">
          <mxGeometry x="-2275" y="148" width="60" height="60" as="geometry" />
        </mxCell>
        <mxCell id="XFGnVmIvgDXaTXO8uA-s-223" value="" style="endArrow=none;html=1;rounded=0;entryX=0;entryY=0.5;entryDx=0;entryDy=0;" parent="1" target="XFGnVmIvgDXaTXO8uA-s-222" edge="1">
          <mxGeometry width="50" height="50" relative="1" as="geometry">
            <mxPoint x="-2285" y="178" as="sourcePoint" />
            <mxPoint x="-1965" y="298" as="targetPoint" />
          </mxGeometry>
        </mxCell>
        <mxCell id="XFGnVmIvgDXaTXO8uA-s-224" value="" style="endArrow=none;html=1;rounded=0;" parent="1" edge="1">
          <mxGeometry width="50" height="50" relative="1" as="geometry">
            <mxPoint x="-2285" y="208" as="sourcePoint" />
            <mxPoint x="-2285" y="148" as="targetPoint" />
          </mxGeometry>
        </mxCell>
        <mxCell id="XFGnVmIvgDXaTXO8uA-s-225" value="" style="ellipse;whiteSpace=wrap;html=1;labelBackgroundColor=#08FFFF;fillColor=#99FFFF;" parent="1" vertex="1">
          <mxGeometry x="-2155" y="148" width="60" height="60" as="geometry" />
        </mxCell>
        <mxCell id="XFGnVmIvgDXaTXO8uA-s-226" value="" style="endArrow=none;html=1;rounded=0;entryX=0;entryY=0.5;entryDx=0;entryDy=0;" parent="1" target="XFGnVmIvgDXaTXO8uA-s-225" edge="1">
          <mxGeometry width="50" height="50" relative="1" as="geometry">
            <mxPoint x="-2165" y="178" as="sourcePoint" />
            <mxPoint x="-1845" y="298" as="targetPoint" />
          </mxGeometry>
        </mxCell>
        <mxCell id="XFGnVmIvgDXaTXO8uA-s-227" value="" style="endArrow=none;html=1;rounded=0;" parent="1" edge="1">
          <mxGeometry width="50" height="50" relative="1" as="geometry">
            <mxPoint x="-2165" y="208" as="sourcePoint" />
            <mxPoint x="-2165" y="148" as="targetPoint" />
          </mxGeometry>
        </mxCell>
        <mxCell id="XFGnVmIvgDXaTXO8uA-s-228" value="" style="ellipse;whiteSpace=wrap;html=1;labelBackgroundColor=#08FFFF;fillColor=#99FFFF;" parent="1" vertex="1">
          <mxGeometry x="-2035" y="148" width="60" height="60" as="geometry" />
        </mxCell>
        <mxCell id="XFGnVmIvgDXaTXO8uA-s-229" value="" style="ellipse;whiteSpace=wrap;html=1;labelBackgroundColor=#08FFFF;fillColor=#99FFFF;" parent="1" vertex="1">
          <mxGeometry x="-1915" y="148" width="60" height="60" as="geometry" />
        </mxCell>
        <mxCell id="XFGnVmIvgDXaTXO8uA-s-230" value="" style="endArrow=classic;html=1;rounded=0;" parent="1" edge="1">
          <mxGeometry width="50" height="50" relative="1" as="geometry">
            <mxPoint x="-2002" y="148" as="sourcePoint" />
            <mxPoint x="-2012" y="148" as="targetPoint" />
          </mxGeometry>
        </mxCell>
        <mxCell id="XFGnVmIvgDXaTXO8uA-s-231" value="" style="shape=link;html=1;rounded=0;" parent="1" edge="1">
          <mxGeometry width="100" relative="1" as="geometry">
            <mxPoint x="-2006" y="438" as="sourcePoint" />
            <mxPoint x="-2005" y="518" as="targetPoint" />
          </mxGeometry>
        </mxCell>
        <mxCell id="XFGnVmIvgDXaTXO8uA-s-232" value="" style="shape=link;html=1;rounded=0;" parent="1" edge="1">
          <mxGeometry width="100" relative="1" as="geometry">
            <mxPoint x="-1885.5299999999997" y="467" as="sourcePoint" />
            <mxPoint x="-1885" y="518" as="targetPoint" />
          </mxGeometry>
        </mxCell>
        <mxCell id="XFGnVmIvgDXaTXO8uA-s-233" value="" style="endArrow=classic;html=1;rounded=0;" parent="1" edge="1">
          <mxGeometry width="50" height="50" relative="1" as="geometry">
            <mxPoint x="-2005.5299999999997" y="468" as="sourcePoint" />
            <mxPoint x="-1885.5299999999997" y="468" as="targetPoint" />
          </mxGeometry>
        </mxCell>
        <mxCell id="XFGnVmIvgDXaTXO8uA-s-234" value="&lt;font style=&quot;font-size: 12px;&quot;&gt;Masuk ke halaman&lt;/font&gt;" style="text;strokeColor=none;fillColor=none;html=1;fontSize=24;fontStyle=1;verticalAlign=middle;align=center;" parent="1" vertex="1">
          <mxGeometry x="-2595" y="288" width="100" height="30" as="geometry" />
        </mxCell>
        <mxCell id="XFGnVmIvgDXaTXO8uA-s-235" value="&lt;font style=&quot;font-size: 12px;&quot;&gt;Masuk ke halaman&lt;/font&gt;" style="text;strokeColor=none;fillColor=none;html=1;fontSize=24;fontStyle=1;verticalAlign=middle;align=center;" parent="1" vertex="1">
          <mxGeometry x="-2475.5299999999997" y="328" width="100" height="30" as="geometry" />
        </mxCell>
        <mxCell id="XFGnVmIvgDXaTXO8uA-s-236" value="&lt;span style=&quot;font-size: 12px;&quot;&gt;Masuk ke halaman&lt;/span&gt;" style="text;strokeColor=none;fillColor=none;html=1;fontSize=24;fontStyle=1;verticalAlign=middle;align=center;" parent="1" vertex="1">
          <mxGeometry x="-2355.5299999999997" y="368" width="100" height="30" as="geometry" />
        </mxCell>
        <mxCell id="XFGnVmIvgDXaTXO8uA-s-237" value="&lt;font style=&quot;font-size: 12px;&quot;&gt;Mengisi data&lt;/font&gt;" style="text;strokeColor=none;fillColor=none;html=1;fontSize=24;fontStyle=1;verticalAlign=middle;align=center;" parent="1" vertex="1">
          <mxGeometry x="-2175" y="408" width="100" height="30" as="geometry" />
        </mxCell>
        <mxCell id="XFGnVmIvgDXaTXO8uA-s-238" value="Halaman menu utama" style="text;strokeColor=none;fillColor=none;fontSize=12;fontStyle=1;verticalAlign=middle;align=center;whiteSpace=wrap;" parent="1" vertex="1">
          <mxGeometry x="-2533" y="218" width="100" height="30" as="geometry" />
        </mxCell>
        <mxCell id="XFGnVmIvgDXaTXO8uA-s-239" value="Halaman info gugatan / info sidang" style="text;strokeColor=none;fillColor=none;fontSize=12;fontStyle=1;verticalAlign=middle;align=center;whiteSpace=wrap;" parent="1" vertex="1">
          <mxGeometry x="-2415" y="228" width="100" height="30" as="geometry" />
        </mxCell>
        <mxCell id="XFGnVmIvgDXaTXO8uA-s-240" value="Halaman tambah tanggal sidang, hasil sidang, tanggal putusan, biaya" style="text;strokeColor=none;fillColor=none;fontSize=12;fontStyle=1;verticalAlign=middle;align=center;whiteSpace=wrap;" parent="1" vertex="1">
          <mxGeometry x="-2295" y="238" width="100" height="30" as="geometry" />
        </mxCell>
        <mxCell id="XFGnVmIvgDXaTXO8uA-s-241" value="Halaman ubah tanggal sidang, hasil sidang, tanggal putusan, biaya" style="text;strokeColor=none;fillColor=none;fontSize=12;fontStyle=1;verticalAlign=middle;align=center;whiteSpace=wrap;" parent="1" vertex="1">
          <mxGeometry x="-2175" y="238" width="100" height="30" as="geometry" />
        </mxCell>
        <mxCell id="XFGnVmIvgDXaTXO8uA-s-242" value="Validasi" style="text;strokeColor=none;fillColor=none;fontSize=12;fontStyle=1;verticalAlign=middle;align=center;whiteSpace=wrap;" parent="1" vertex="1">
          <mxGeometry x="-2055" y="218" width="100" height="30" as="geometry" />
        </mxCell>
        <mxCell id="XFGnVmIvgDXaTXO8uA-s-243" value="Database" style="text;strokeColor=none;fillColor=none;fontSize=12;fontStyle=1;verticalAlign=middle;align=center;whiteSpace=wrap;" parent="1" vertex="1">
          <mxGeometry x="-1935" y="218" width="100" height="30" as="geometry" />
        </mxCell>
        <mxCell id="XFGnVmIvgDXaTXO8uA-s-244" value="" style="endArrow=none;html=1;rounded=0;" parent="1" edge="1">
          <mxGeometry width="50" height="50" relative="1" as="geometry">
            <mxPoint x="-1915.5299999999997" y="207.95000000000005" as="sourcePoint" />
            <mxPoint x="-1855" y="207.95000000000005" as="targetPoint" />
          </mxGeometry>
        </mxCell>
        <mxCell id="XFGnVmIvgDXaTXO8uA-s-245" value="&lt;font style=&quot;font-size: 12px;&quot;&gt;Benar&lt;/font&gt;" style="text;strokeColor=none;fillColor=none;html=1;fontSize=24;fontStyle=1;verticalAlign=middle;align=center;" parent="1" vertex="1">
          <mxGeometry x="-1995" y="438" width="100" height="30" as="geometry" />
        </mxCell>
        <mxCell id="XFGnVmIvgDXaTXO8uA-s-246" value="" style="endArrow=classic;html=1;rounded=0;" parent="1" edge="1">
          <mxGeometry width="50" height="50" relative="1" as="geometry">
            <mxPoint x="-2005" y="518" as="sourcePoint" />
            <mxPoint x="-2245" y="518" as="targetPoint" />
          </mxGeometry>
        </mxCell>
        <mxCell id="XFGnVmIvgDXaTXO8uA-s-247" value="&lt;font style=&quot;font-size: 12px;&quot;&gt;Salah&lt;/font&gt;" style="text;strokeColor=none;fillColor=none;html=1;fontSize=24;fontStyle=1;verticalAlign=middle;align=center;" parent="1" vertex="1">
          <mxGeometry x="-2175" y="488" width="100" height="30" as="geometry" />
        </mxCell>
        <mxCell id="XFGnVmIvgDXaTXO8uA-s-248" value="" style="shape=link;html=1;rounded=0;" parent="1" edge="1">
          <mxGeometry width="100" relative="1" as="geometry">
            <mxPoint x="-2125.5299999999997" y="548" as="sourcePoint" />
            <mxPoint x="-2125" y="678" as="targetPoint" />
          </mxGeometry>
        </mxCell>
        <mxCell id="XFGnVmIvgDXaTXO8uA-s-249" value="" style="endArrow=classic;html=1;rounded=0;" parent="1" edge="1">
          <mxGeometry width="50" height="50" relative="1" as="geometry">
            <mxPoint x="-2365.5299999999997" y="548" as="sourcePoint" />
            <mxPoint x="-2125" y="548" as="targetPoint" />
          </mxGeometry>
        </mxCell>
        <mxCell id="XFGnVmIvgDXaTXO8uA-s-250" value="" style="endArrow=classic;html=1;rounded=0;" parent="1" edge="1">
          <mxGeometry width="50" height="50" relative="1" as="geometry">
            <mxPoint x="-2125" y="588" as="sourcePoint" />
            <mxPoint x="-2005" y="588" as="targetPoint" />
          </mxGeometry>
        </mxCell>
        <mxCell id="XFGnVmIvgDXaTXO8uA-s-251" value="" style="shape=link;html=1;rounded=0;" parent="1" edge="1">
          <mxGeometry width="100" relative="1" as="geometry">
            <mxPoint x="-2006" y="588" as="sourcePoint" />
            <mxPoint x="-2005" y="668" as="targetPoint" />
          </mxGeometry>
        </mxCell>
        <mxCell id="XFGnVmIvgDXaTXO8uA-s-252" value="" style="shape=link;html=1;rounded=0;" parent="1" edge="1">
          <mxGeometry width="100" relative="1" as="geometry">
            <mxPoint x="-1885.5299999999997" y="617" as="sourcePoint" />
            <mxPoint x="-1885" y="668" as="targetPoint" />
          </mxGeometry>
        </mxCell>
        <mxCell id="XFGnVmIvgDXaTXO8uA-s-253" value="" style="endArrow=classic;html=1;rounded=0;" parent="1" edge="1">
          <mxGeometry width="50" height="50" relative="1" as="geometry">
            <mxPoint x="-2005.5299999999997" y="618" as="sourcePoint" />
            <mxPoint x="-1885.5299999999997" y="618" as="targetPoint" />
          </mxGeometry>
        </mxCell>
        <mxCell id="XFGnVmIvgDXaTXO8uA-s-254" value="&lt;font style=&quot;font-size: 12px;&quot;&gt;Mengubah data&lt;/font&gt;" style="text;strokeColor=none;fillColor=none;html=1;fontSize=24;fontStyle=1;verticalAlign=middle;align=center;" parent="1" vertex="1">
          <mxGeometry x="-2115" y="558" width="100" height="30" as="geometry" />
        </mxCell>
        <mxCell id="XFGnVmIvgDXaTXO8uA-s-255" value="&lt;font style=&quot;font-size: 12px;&quot;&gt;Benar&lt;/font&gt;" style="text;strokeColor=none;fillColor=none;html=1;fontSize=24;fontStyle=1;verticalAlign=middle;align=center;" parent="1" vertex="1">
          <mxGeometry x="-1995" y="588" width="100" height="30" as="geometry" />
        </mxCell>
        <mxCell id="XFGnVmIvgDXaTXO8uA-s-256" value="" style="endArrow=classic;html=1;rounded=0;" parent="1" edge="1">
          <mxGeometry width="50" height="50" relative="1" as="geometry">
            <mxPoint x="-2005" y="668" as="sourcePoint" />
            <mxPoint x="-2245" y="668" as="targetPoint" />
          </mxGeometry>
        </mxCell>
        <mxCell id="XFGnVmIvgDXaTXO8uA-s-257" value="&lt;font style=&quot;font-size: 12px;&quot;&gt;Salah&lt;/font&gt;" style="text;strokeColor=none;fillColor=none;html=1;fontSize=24;fontStyle=1;verticalAlign=middle;align=center;" parent="1" vertex="1">
          <mxGeometry x="-2125" y="638" width="100" height="30" as="geometry" />
        </mxCell>
        <mxCell id="XFGnVmIvgDXaTXO8uA-s-258" value="&lt;span style=&quot;font-size: 12px;&quot;&gt;Masuk ke halaman&lt;/span&gt;" style="text;strokeColor=none;fillColor=none;html=1;fontSize=24;fontStyle=1;verticalAlign=middle;align=center;" parent="1" vertex="1">
          <mxGeometry x="-2285" y="522" width="100" height="30" as="geometry" />
        </mxCell>
        <mxCell id="XFGnVmIvgDXaTXO8uA-s-259" value="" style="shape=link;html=1;rounded=0;" parent="1" edge="1">
          <mxGeometry width="100" relative="1" as="geometry">
            <mxPoint x="-2245" y="658" as="sourcePoint" />
            <mxPoint x="-2245" y="678.5" as="targetPoint" />
          </mxGeometry>
        </mxCell>
        <mxCell id="XFGnVmIvgDXaTXO8uA-s-260" value="" style="endArrow=none;dashed=1;html=1;dashPattern=1 3;strokeWidth=2;rounded=0;fontSize=12;fontColor=none;" parent="1" edge="1">
          <mxGeometry width="50" height="50" relative="1" as="geometry">
            <mxPoint x="-2605" y="318" as="sourcePoint" />
            <mxPoint x="-2605" y="238" as="targetPoint" />
          </mxGeometry>
        </mxCell>
        <mxCell id="XFGnVmIvgDXaTXO8uA-s-261" value="" style="endArrow=none;dashed=1;html=1;dashPattern=1 3;strokeWidth=2;rounded=0;fontSize=12;fontColor=none;" parent="1" edge="1">
          <mxGeometry width="50" height="50" relative="1" as="geometry">
            <mxPoint x="-2485" y="318" as="sourcePoint" />
            <mxPoint x="-2485" y="248" as="targetPoint" />
          </mxGeometry>
        </mxCell>
        <mxCell id="XFGnVmIvgDXaTXO8uA-s-262" value="" style="endArrow=none;dashed=1;html=1;dashPattern=1 3;strokeWidth=2;rounded=0;fontSize=12;fontColor=none;" parent="1" edge="1">
          <mxGeometry width="50" height="50" relative="1" as="geometry">
            <mxPoint x="-2365.5299999999997" y="358" as="sourcePoint" />
            <mxPoint x="-2366" y="268" as="targetPoint" />
          </mxGeometry>
        </mxCell>
        <mxCell id="XFGnVmIvgDXaTXO8uA-s-263" value="" style="endArrow=none;dashed=1;html=1;dashPattern=1 3;strokeWidth=2;rounded=0;fontSize=12;fontColor=none;" parent="1" edge="1">
          <mxGeometry width="50" height="50" relative="1" as="geometry">
            <mxPoint x="-2245" y="398" as="sourcePoint" />
            <mxPoint x="-2245" y="288" as="targetPoint" />
          </mxGeometry>
        </mxCell>
        <mxCell id="XFGnVmIvgDXaTXO8uA-s-264" value="" style="endArrow=none;dashed=1;html=1;dashPattern=1 3;strokeWidth=2;rounded=0;fontSize=12;fontColor=none;" parent="1" edge="1">
          <mxGeometry width="50" height="50" relative="1" as="geometry">
            <mxPoint x="-2125" y="538" as="sourcePoint" />
            <mxPoint x="-2125" y="288" as="targetPoint" />
          </mxGeometry>
        </mxCell>
        <mxCell id="XFGnVmIvgDXaTXO8uA-s-265" value="" style="endArrow=none;dashed=1;html=1;dashPattern=1 3;strokeWidth=2;rounded=0;fontSize=12;fontColor=none;" parent="1" edge="1">
          <mxGeometry width="50" height="50" relative="1" as="geometry">
            <mxPoint x="-2006" y="438" as="sourcePoint" />
            <mxPoint x="-2006" y="238" as="targetPoint" />
          </mxGeometry>
        </mxCell>
        <mxCell id="XFGnVmIvgDXaTXO8uA-s-266" value="" style="endArrow=none;dashed=1;html=1;dashPattern=1 3;strokeWidth=2;rounded=0;fontSize=12;fontColor=none;entryX=0.5;entryY=1;entryDx=0;entryDy=0;" parent="1" edge="1">
          <mxGeometry width="50" height="50" relative="1" as="geometry">
            <mxPoint x="-1885" y="458" as="sourcePoint" />
            <mxPoint x="-1885.25" y="248" as="targetPoint" />
          </mxGeometry>
        </mxCell>
        <mxCell id="XFGnVmIvgDXaTXO8uA-s-267" value="" style="endArrow=none;dashed=1;html=1;dashPattern=1 3;strokeWidth=2;rounded=0;fontSize=12;fontColor=none;entryX=0.5;entryY=1;entryDx=0;entryDy=0;" parent="1" edge="1">
          <mxGeometry width="50" height="50" relative="1" as="geometry">
            <mxPoint x="-1886" y="618" as="sourcePoint" />
            <mxPoint x="-1885.62" y="522" as="targetPoint" />
          </mxGeometry>
        </mxCell>
        <mxCell id="XFGnVmIvgDXaTXO8uA-s-268" value="" style="endArrow=none;dashed=1;html=1;dashPattern=1 3;strokeWidth=2;rounded=0;fontSize=12;fontColor=none;entryX=0.5;entryY=1;entryDx=0;entryDy=0;" parent="1" edge="1">
          <mxGeometry width="50" height="50" relative="1" as="geometry">
            <mxPoint x="-2245" y="658" as="sourcePoint" />
            <mxPoint x="-2245.25" y="525" as="targetPoint" />
          </mxGeometry>
        </mxCell>
      </root>
    </mxGraphModel>
  </diagram>
</mxfile>
